<?xml version="1.0" standalone="no"?>
<!DOCTYPE svg PUBLIC "-//W3C//DTD SVG 1.1//EN" "http://www.w3.org/Graphics/SVG/1.1/DTD/svg11.dtd" >
<!--
2013-9-30: Created.
-->
<svg>
<metadata>
Created by iconfont
</metadata>
<defs>

<font id="iconfont" horiz-adv-x="1024" >
  <font-face
    font-family="iconfont"
    font-weight="500"
    font-stretch="normal"
    units-per-em="1024"
    ascent="896"
    descent="-128"
  />
    <missing-glyph />
    
    <glyph glyph-name="vip" unicode="&#59075;" d="M512-64.032C264.96-64.032 64 136.96 64 384S264.96 832 512 832 960.032 631.04 960.032 384 759.04-64.032 512-64.032zM512 768C300.256 768 128 595.744 128 384s172.256-384.032 384-384.032S896.032 172.256 896.032 384 723.744 768 512 768zM416 158.24c-4.672 0-9.344 0.992-13.696 3.072C391.136 166.624 384 177.888 384 190.24L384 512l-64 0c-17.664 0-32 14.336-32 32s14.336 32 32 32l96 0c17.664 0 32-14.336 32-32l0-286.08L679.68 448 672 448c-17.696 0-32 14.336-32 32s14.304 32 32 32l97.12 0c13.536 0 25.568-8.512 30.112-21.216 4.576-12.736 0.64-26.944-9.824-35.52l-353.152-289.76C430.464 160.704 423.264 158.24 416 158.24z"  horiz-adv-x="1024" />

    
    <glyph glyph-name="xinxi" unicode="&#58880;" d="M950.381817 386.240017c0 242.11834-196.265012 438.384375-438.382329 438.384375-242.11834 0-438.382329-196.266036-438.382329-438.384375 0-242.12755 196.263989-438.392562 438.382329-438.392562 99.394754 0 190.403514 33.816177 263.941368 89.542362 3.0208 3.427052 5.004991 7.79964 5.004991 12.716626 0 10.729365-8.701173 19.431561-19.431561 19.431561-5.570879 0-10.529821-2.209318-14.068414-5.950526l-0.248663 0c-65.804728-48.423873-146.803507-77.415161-234.767931-77.415161-219.23619 0-396.992663 177.780009-396.992663 397.002896 0 219.260749 177.756473 396.99471 396.992663 396.99471 219.258703 0 396.99164-177.73396 396.99164-396.99471 0-66.952878-15.712867-129.98547-45.01831-185.352475l0-0.326435c-0.541329-1.849114-1.127683-3.65218-1.127683-5.636371 0-10.731412 8.701173-19.431561 19.431561-19.431561 8.363482 0 15.35164 5.363148 18.080797 12.759605l0-0.135076C932.008354 245.389082 950.381817 313.649745 950.381817 386.240017zM539.389302 498.949009c0 12.668531-10.32516 22.981411-23.038716 22.981411-12.670577 0-22.973224-10.31288-22.973224-22.981411l0-328.054571c0-12.670577 10.302647-22.994714 22.995737-22.994714 12.713556 0 23.016203 10.324136 23.016203 22.994714 0 0.044002-0.044002 0.091074-0.044002 0.134053L539.3453 498.790396C539.3453 498.835422 539.389302 498.901936 539.389302 498.949009zM516.395612 619.56918c-12.895705 0-23.333428-10.392698-23.333428-23.299659 0-12.875239 10.437723-23.310915 23.333428-23.310915 12.849656 0 23.309892 10.4367 23.309892 23.310915C539.705504 609.176482 529.244244 619.56918 516.395612 619.56918z"  horiz-adv-x="1024" />

    
    <glyph glyph-name="unie601" unicode="&#59087;" d="M1020.192 482.176c-8.864 25.568-31.616 44.288-59.008 48.352l-266.432 39.616-115.808 240.448c-12.192 25.248-38.272 41.408-66.944 41.408s-54.752-16.16-66.944-41.408l-115.808-240.448-266.464-39.616c-27.36-4.064-50.112-22.784-58.944-48.352-8.8-25.632-2.144-53.856 17.184-73.12l195.264-194.944-45.28-270.432c-4.608-27.232 7.2-54.56 30.336-70.496 12.704-8.736 27.648-13.184 42.592-13.184 12.288 0 24.608 3.008 35.776 8.992l232.288 125.056 232.32-125.056c11.168-5.984 23.488-8.992 35.744-8.992 14.944 0 29.888 4.448 42.624 13.184 23.136 15.936 34.88 43.264 30.304 70.496l-45.312 270.432 195.328 194.944c19.296 19.296 25.92 47.52 17.184 73.12zM754.816 264.384c-16.384-16.32-23.808-39.328-20.064-61.888l45.312-270.432-232.32 124.992c-11.136 6.016-23.424 8.992-35.776 8.992-12.288 0-24.608-3.008-35.744-8.992l-232.32-124.992 45.312 270.432c3.776 22.56-3.648 45.568-20.032 61.888l-195.264 194.944 266.432 39.68c24.352 3.616 45.312 18.848 55.776 40.576l115.872 240.384 115.84-240.416c10.496-21.728 31.424-36.928 55.744-40.576l266.496-39.68-195.264-194.912z"  horiz-adv-x="1024" />

    
    <glyph glyph-name="express-model" unicode="&#58946;" d="M505.2 697.1l-159.1 94.5-283.3-149.4 118.7-121.6 323.7 176.5zM505.2 342.7l-323.7 176.4-116.7-138.1 304.6-180.5 135.8 142.2zM508.6 342.7l140.7-141.3 309.4 175.9-126.4 141.8-323.7-176.4zM653.4 147l-146.5 141.4-133.8-141.9-186.9 116.2v-110.2l323.6-187.9 326.6 185.2-0.5 112.9-182.5-115.7zM958.8 642.2l-291.1 149.4-159.2-94.5 323.7-176.4 126.6 121.5zM958.8 642.2z"  horiz-adv-x="1024" />

    
    <glyph glyph-name="shouhou" unicode="&#58956;" d="M934.399999 640.000001c-70.4 121.6-179.199999 204.799999-313.599999 236.799999-185.599999 51.2-383.999999-6.4-511.999999-153.6L19.200001 780.8l6.4-223.999999c0-19.2 25.6-32 38.4-19.2l191.999999 115.2L166.400001 697.600001c115.2 121.6 287.999999 166.4 447.999999 128 115.2-32 217.599999-108.8 275.199999-211.199999 64-108.8 76.8-230.399999 44.8-345.599999-32-115.2-108.8-217.599999-211.199999-275.199999-108.8-64-230.399999-76.8-345.599999-44.8-121.6 32-217.599999 108.8-281.599999 217.599999-6.4 12.8-25.6 19.2-38.4 12.8-12.8-6.4-19.2-25.6-12.8-38.4 70.4-121.6 179.199999-204.799999 313.599999-243.199999C403.2-121.599997 448-127.999997 492.8-127.999997c89.6 0 179.199999 25.6 255.999999 70.4 121.6 70.4 204.799999 179.199999 236.799999 313.599999C1023.999999 384.000001 1004.799999 518.400001 934.399999 640.000001zM665.6 179.200002 665.6 313.600002 339.2 313.600002l0-140.8 64 0L403.2 192.000002l204.799999 0 0-19.2L665.6 172.800002zM403.2 236.800002 403.2 268.800002l204.799999 0 0-32L403.2 236.800002zM377.6 595.200001C352 550.400001 326.400001 512.000001 288.000001 480.000001c6.4-19.2 19.2-38.4 25.6-64C320.000001 422.400001 332.800001 435.200001 339.2 441.600001l0-115.2 57.6 0L396.8 332.800002l300.799999 0L697.599999 371.200001 550.4 371.200001 550.4 396.800001l121.6 0L672 435.200001 550.4 435.200001 550.4 454.400001l121.6 0L672 492.800001 550.4 492.800001 550.4 512.000001l140.8 0L691.199999 550.400001l-128 0C556.8 569.600001 544 582.400001 537.6 601.600001L480 588.800001C486.4 576.000001 492.8 563.200001 492.8 550.400001L416 550.400001c6.4 6.4 12.8 19.2 12.8 25.6L377.6 595.200001zM492.8 371.200001 396.8 371.200001 396.8 396.800001l102.4 0L499.2 371.200001zM492.8 435.200001 396.8 435.200001 396.8 454.400001l102.4 0L499.2 435.200001zM492.8 512.000001l0-25.6L396.8 486.400001 396.8 512.000001 492.8 512.000001z"  horiz-adv-x="1024" />

    
    <glyph glyph-name="iconset0336" unicode="&#59115;" d="M896 725.333333 128 725.333333c-46.933333 0-85.333333-38.4-85.333333-85.333333l0-512c0-46.933333 38.4-85.333333 85.333333-85.333333l768 0c46.933333 0 85.333333 38.4 85.333333 85.333333L981.333333 640C981.333333 686.933333 942.933333 725.333333 896 725.333333zM128 682.666667l768 0c4.266667 0 10.666667 0 14.933333-2.133333L541.866667 311.466667C533.333333 302.933333 522.666667 298.666667 512 298.666667c-10.666667 0-21.333333 4.266667-29.866667 12.8L113.066667 680.533333C117.333333 682.666667 123.733333 682.666667 128 682.666667zM85.333333 128 85.333333 640c0 2.133333 0 4.266667 0 6.4L349.866667 384 85.333333 121.6C85.333333 123.733333 85.333333 125.866667 85.333333 128zM896 85.333333 128 85.333333c-4.266667 0-10.666667 0-14.933333 2.133333l266.666667 266.666667 72.533333-72.533333C469.333333 264.533333 490.666667 256 512 256c21.333333 0 42.666667 8.533333 59.733333 23.466667l72.533333 72.533333 266.666667-266.666667C906.666667 85.333333 900.266667 85.333333 896 85.333333zM938.666667 128c0-2.133333 0-4.266667 0-6.4L674.133333 384 938.666667 646.4c0-2.133333 0-4.266667 0-6.4L938.666667 128z"  horiz-adv-x="1024" />

    
    <glyph glyph-name="weibiaoti26" unicode="&#58924;" d="M911.2 228 400.8 228c-24.8 0-44.8 21.6-44.8 48s20 48 44.8 48l510.4 0c24.8 0 44.8-21.6 44.8-48S936 228 911.2 228zM911.2 452 400.8 452c-24.8 0-44.8 21.6-44.8 48s20 48 44.8 48l510.4 0c24.8 0 44.8-21.6 44.8-48S936 452 911.2 452zM908 668l-784 0c-26.4 0-48 21.6-48 48 0 26.4 21.6 48 48 48l784 0c26.4 0 48-21.6 48-48C956 689.6 934.4 668 908 668zM300 228l-224 160 224 160L300 228zM124 108l784 0c26.4 0 48-21.6 48-48s-21.6-48-48-48l-784 0c-26.4 0-48 21.6-48 48S97.6 108 124 108z"  horiz-adv-x="1024" />

    
    <glyph glyph-name="jiantouarrow487" unicode="&#59051;" d="M714.19904 346.15296l-328.704-328.69376c-20.91008-20.91008-54.80448-20.91008-75.70432 0-20.89984 20.89984-20.89984 54.80448 0 75.70432L600.63744 384 309.80096 674.83648c-20.89984 20.91008-20.89984 54.80448 0 75.70432 20.89984 20.91008 54.79424 20.91008 75.70432 0l328.704-328.69376c10.4448-10.45504 15.6672-24.14592 15.6672-37.84704S724.64384 356.59776 714.19904 346.15296z"  horiz-adv-x="1024" />

    
    <glyph glyph-name="paixujiantoushang" unicode="&#59390;" d="M758.4 510.08 539.52 755.84c-14.72 16.64-40.32 16.64-54.4 0L266.24 510.08C244.48 486.4 261.76 448 293.12 448l437.76 0C762.88 448 779.52 486.4 758.4 510.08z"  horiz-adv-x="1024" />

    
    <glyph glyph-name="paixujiantouxia" unicode="&#59391;" d="M757.76 258.56l-218.88-245.76c-14.72-16.64-40.32-16.64-54.4 0L265.6 258.56C244.48 282.24 261.12 320 293.12 320l437.76 0C762.24 320 779.52 282.24 757.76 258.56z"  horiz-adv-x="1024" />

    
    <glyph glyph-name="xiazai16" unicode="&#58896;" d="M768 512C732.672 512 704 483.328 704 448 704 412.672 732.672 384 768 384 803.328 384 832 412.672 832 448 832 483.328 803.328 512 768 512L768 512ZM512 64C474.624 64 438.528 68.352 403.84 75.744L253.184-14.816 255.2 133.632C139.712 203.072 64 317.888 64 448 64 660.064 264.576 832 512 832 759.424 832 960 660.064 960 448 960 235.904 759.424 64 512 64L512 64ZM512 896C229.248 896 0 695.392 0 448 0 306.592 75.04 180.672 192 98.592L192-128 416.288 8.096C447.328 2.976 479.264 0 512 0 794.752 0 1024 200.576 1024 448 1024 695.392 794.752 896 512 896L512 896ZM256 512C220.672 512 192 483.328 192 448 192 412.672 220.672 384 256 384 291.328 384 320 412.672 320 448 320 483.328 291.328 512 256 512L256 512ZM512 512C476.672 512 448 483.328 448 448 448 412.672 476.672 384 512 384 547.328 384 576 412.672 576 448 576 483.328 547.328 512 512 512L512 512Z"  horiz-adv-x="1024" />

    
    <glyph glyph-name="chenggong" unicode="&#58928;" d="M511.434623 832.435289c-247.428276 0-448.010617-200.582341-448.010617-448.01164 0-247.430322 200.581318-448.01164 448.010617-448.01164 247.432369 0 448.012663 200.581318 448.012663 448.01164C959.447287 631.852948 758.865969 832.435289 511.434623 832.435289zM773.519714 513.423675 447.871959 191.960219 245.771031 388.955872l63.996546 68.093864 138.15964-138.15964 261.086343 261.087367L773.519714 513.423675z"  horiz-adv-x="1024" />

    
    <glyph glyph-name="wenzhangguanli" unicode="&#59004;" d="M682.609797 497.569255 284.520271 497.569255l0-56.869932 398.089526 0L682.609797 497.569255zM284.520271 99.479729l398.089526 0 0 56.869932L284.520271 156.349661 284.520271 99.479729zM284.520271 270.089526l511.82939 0 0 56.869932L284.520271 326.959458 284.520271 270.089526zM966.959458 656.861935 966.959458 668.179051l0 0-11.317117 0L739.479729 884.341664 739.479729 895.65878l0 0-11.317117 0-0.34122 0.34122L727.480173 895.65878 682.609797 895.65878 170.780407 895.65878C107.939131 895.65878 57.040542 844.760191 57.040542 781.918916l0-796.179051c0-62.841275 50.898589-113.739864 113.739864-113.739864l682.439187 0c62.841275 0 113.739864 50.898589 113.739864 113.739864L966.959458 611.309119 966.959458 652.59669l2.104187 2.104187L966.959458 656.861935zM739.479729 803.92758 875.228257 668.179051 739.479729 668.179051 739.479729 803.92758zM910.089526-14.260136c0-31.392203-25.47773-56.869932-56.869932-56.869932L170.780407-71.130068c-31.392203 0-56.869932 25.47773-56.869932 56.869932L113.910474 781.918916c0 31.392203 25.47773 56.869932 56.869932 56.869932l511.82939 0 0-170.609797 0-56.869932 56.869932 0 170.609797 0L910.089526-14.260136z"  horiz-adv-x="1024" />

    
    <glyph glyph-name="miaosha" unicode="&#58892;" d="M504.787121 879.412647c-278.279557 0-503.868569-225.589013-503.868569-503.868569 0-278.279557 225.589013-503.868569 503.868569-503.868569s503.868569 225.589013 503.868569 503.868569C1008.65569 653.823634 783.06567 879.412647 504.787121 879.412647zM504.787121-88.015006c-256.016628 0-463.559084 207.542456-463.559084 463.559084 0 256.016628 207.542456 463.559084 463.559084 463.559084s463.559084-207.542456 463.559084-463.559084C968.346205 119.52745 760.803749-88.015006 504.787121-88.015006zM401.792355-6.582791 497.459865 330.028622 310.943844 330.124357 529.693345 760.006881 472.003417 436.129234 694.881616 436.336828ZM504.787121 879.540629c-277.981266 0-503.330437-225.348163-503.330437-503.32943 0-277.983282 225.349171-503.330437 503.330437-503.330437 277.982274 0 503.330437 225.347156 503.330437 503.330437C1008.117559 654.192466 782.769395 879.540629 504.787121 879.540629zM504.787121-74.571792c-248.960452 0-450.781984 201.820524-450.781984 450.782992 0 248.959444 201.821532 450.781984 450.781984 450.781984 248.96146 0 450.780977-201.82254 450.780977-450.781984C955.568098 127.248732 753.748581-74.571792 504.787121-74.571792z"  horiz-adv-x="1024" />

    
    <glyph glyph-name="shangpin" unicode="&#58997;" d="M512.000918 383.997633c-125.269475 0-229.797147 90.437931-251.744912 209.455496 14.62756 10.295643 24.192651 27.289237 24.192651 46.535061 0 31.419242-25.468364 56.894948-56.887606 56.894948-31.419242 0-56.887606-25.475706-56.887606-56.894948 0-22.766423 13.386723-42.405055 32.709639-51.489231 24.629514-148.107485 153.63435-261.388932 308.625176-261.388932 154.983484 0 283.988319 113.281447 308.617833 261.388932 19.322917 9.084175 32.702297 28.722808 32.702297 51.489231 0 31.419242-25.461021 56.894948-56.880264 56.894948s-56.894948-25.475706-56.894948-56.894948c0-19.245824 9.572433-36.24676 24.199994-46.535061C741.79623 474.428222 637.277735 383.997633 512.000918 383.997633L512.000918 383.997633zM910.215997 895.98976l-28.408928 0c-0.007342 0-0.022027 0-0.036712 0L682.663736 895.98976c-0.007342 0-0.022027 0-0.036712 0l-3.549969 0c0.022027-0.078929 0.042218-0.1652 0.056902-0.24413-14.038346-1.734602-24.915861-13.687754-24.915861-28.199674 0-14.51192 10.877515-26.465071 24.915861-28.199674-0.022027-0.086271-0.036712-0.1652-0.056902-0.24413l231.137105 0c31.36234 0 56.894948-25.532609 56.894948-56.887606l0-796.439336c0-31.36234-25.532609-56.887606-56.894948-56.887606L113.784003-71.112394c-31.36234 0-56.887606 25.525266-56.887606 56.887606L56.896397 782.214548c0 31.354997 25.525266 56.887606 56.887606 56.887606L316.477305 839.102154c-0.022027 0.078929-0.034876 0.157858-0.056902 0.24413 14.038346 1.734602 24.915861 13.687754 24.915861 28.199674 0 14.51192-10.877515 26.465071-24.915861 28.199674 0.014685 0.086271 0.034876 0.1652 0.056902 0.24413l-3.548134 0c-0.014685 0-0.022027 0-0.036712 0L113.784003 895.98976c-0.027534 0-0.049561 0-0.071586 0C50.995079 895.947543 0.008791 844.939228 0.008791 782.214548l0-796.439336c0-62.746707 51.022999-113.775212 113.775212-113.775212l796.431993 0c62.754048 0 113.775212 51.030342 113.775212 113.775212L1023.991209 782.214548C1023.991209 844.966761 972.970045 895.98976 910.215997 895.98976L910.215997 895.98976zM910.215997 895.98976"  horiz-adv-x="1024" />

    
    <glyph glyph-name="mima" unicode="&#58950;" d="M881.627409 528.5727l-33.152051 0c0.353041 2.012843 0.470721 4.104481 0.314155 6.245238-2.741437 37.419238-11.31572 73.77526-25.590841 108.396779-17.012466 41.262776-41.362037 78.314647-72.371284 110.125143-31.008224 31.810496-67.125817 56.789401-107.348913 74.241888-41.659819 18.076704-85.895299 27.241434-131.478474 27.241434-45.583175 0-89.818655-9.165754-131.479497-27.241434-40.223097-17.452487-76.340689-42.431392-107.348913-74.241888-31.009248-31.810496-55.357795-68.862367-72.371284-110.125143-14.275121-34.621519-22.848381-70.977541-25.590841-108.396779-0.156566-2.140757-0.038886-4.232394 0.314155-6.245238l-49.682539 0c-50.327222 0-91.27175-40.944528-91.27175-91.27175l0-431.924243c0-50.328245 40.944528-91.27175 91.27175-91.27175l755.785306 0c50.327222 0 91.270726 40.944528 91.270726 91.27175L972.897112 437.30095C972.898135 487.628172 931.953607 528.5727 881.627409 528.5727zM237.227959 531.115616c5.167696 66.944691 33.06507 129.168872 79.859839 177.173189 52.062749 53.40942 121.284297 82.82231 194.912202 82.82231s142.848429-29.413913 194.911178-82.82231c46.793746-48.004317 74.692143-110.227474 79.859839-177.173189 0.066515-0.861624 0.178055-1.708921 0.327458-2.542916L236.901525 528.5727C237.049904 529.406694 237.161445 530.253992 237.227959 531.115616zM906.383232 5.376707c0-13.650905-11.105942-24.756847-24.755824-24.756847L125.842103-19.38014c-13.650905 0-24.756847 11.106965-24.756847 24.756847L101.085256 437.30095c0 13.650905 11.105942 24.756847 24.756847 24.756847l755.785306 0c13.650905 0 24.755824-11.105942 24.755824-24.756847L906.383232 5.376707zM507.520989 358.334457c-28.492938-2.116197-51.582819-24.984021-53.946656-53.457516-1.706875-20.553105 7.198959-39.111786 21.832238-50.811246 10.066263-8.049327 15.652492-20.453844 15.652492-33.342386L491.059062 106.700393c0-10.666944 7.378038-20.208251 17.86795-22.143323 13.882172-2.561335 26.107611 8.16496 26.107611 21.60711L535.034623 222.470093c0 12.583596 5.417383 24.604374 14.992459 32.769334 12.610202 10.752902 20.60734 26.755364 20.60734 44.626383C570.634422 333.730083 541.92659 360.889653 507.520989 358.334457z"  horiz-adv-x="1024" />

    
    <glyph glyph-name="qita" unicode="&#58923;" d="M736.1792 439.296c-19.92704 11.52512-44.48256 11.52512-64.40448 0s-32.19968-32.82432-32.19968-55.87456 12.27264-44.34944 32.19968-55.86944c19.92704-11.52512 44.48256-11.52512 64.40448 0 19.93216 11.52 32.19968 32.8192 32.19968 55.86944S756.11136 427.77088 736.1792 439.296zM997.71904 538.2912c-10.9312 34.4064-25.1904 67.37408-43.18208 98.6624-12.16512 21.15584-40.35072 22.93248-54.0416 3.39968-8.56064-12.20096-7.19872-24.61184-0.19968-37.36064 59.61216-108.55424 74.09152-223.05792 40.13056-342.07744-68.73088-240.91648-318.67904-377.15456-558.4128-305.82784-175.66208 52.25472-303.3344 211.02592-316.88192 394.368-5.53984 74.97728 6.90688 146.90816 36.8896 215.91552 82.54976 189.9776 293.2224 299.58656 495.7696 257.8176 46.5664-9.6 90.61888-25.79968 131.99872-49.2544 7.08608-4.00896 14.40768-6.69184 22.68672-5.41184 13.91104 2.15552 24.73472 12.30336 27.22816 25.43104 2.7392 14.39232-3.70176 27.47392-17.72544 35.25632C647.23456 892.96384 525.46048 911.55456 397.50656 882.9184 165.39136 830.97088 0.05632 622.81728 0 384.34816c-0.00512-38.14912 4.0192-75.87328 12.42112-113.06496 65.00864-287.8208 359.52128-461.42976 642.048-378.55232 199.6288 58.56256 343.83872 232.51456 364.79488 440.70912C1026.2784 403.11296 1018.94144 471.48544 997.71904 538.2912zM478.62784 439.296c-19.92704-11.52512-32.2048-32.82432-32.2048-55.87456 0-35.63008 28.83584-64.51712 64.40448-64.51712s64.40448 28.88704 64.40448 64.51712c0 23.05024-12.27264 44.34944-32.2048 55.87456C523.10528 450.82112 498.55488 450.82112 478.62784 439.296zM285.60896 439.296c-19.92704-11.52512-32.2048-32.82432-32.2048-55.87456s12.27264-44.34944 32.2048-55.86944c19.92704-11.52512 44.47744-11.52512 64.40448 0 19.92704 11.52 32.19968 32.8192 32.19968 55.86944s-12.27264 44.34944-32.19968 55.87456C330.0864 450.82112 305.53088 450.82112 285.60896 439.296z"  horiz-adv-x="1024" />

    
    <glyph glyph-name="wenzhang-copy" unicode="&#58947;" d="M788.551 603.105c-74.801 0-135.633 60.832-135.633 135.605v156.171h-487.636c-45.595 0-82.548-36.982-82.548-82.549v-856.719c0-45.567 36.955-82.493 82.548-82.493h693.46c45.571 0 82.523 36.926 82.523 82.493v647.493h-152.714zM805.084 56.884h-586.199v55.301h586.199v-55.301zM805.084 233.85h-586.199v55.301h586.199v-55.301zM805.084 410.816h-586.199v55.301h586.199v-55.301zM706.002 894.881v-156.171c0-45.567 36.955-82.493 82.549-82.493h152.714l-235.263 238.662z"  horiz-adv-x="1024" />

    
    <glyph glyph-name="gouwuche" unicode="&#58907;" d="M933.282882 635.90524c-15.21247 22.399149-40.325427 35.772738-67.178005 35.772738L279.771915 671.677978l-50.179866 0.061398-4.52813 25.161053L218.838124 741.257683c-2.003634 14.264888-14.31196 25.018813-28.628014 25.018813l-84.399225 0c-15.947204 0-28.91761-13.047154-28.91761-29.087479 0-16.041348 12.971429-29.088502 28.91761-29.088502l59.276035 0 2.794649-19.902282c0.052189-0.373507 0.113587-0.738827 0.181125-1.104147l8.257058-45.915749c0.128937-2.482541 0.568958-4.932336 1.316995-7.30129l12.232602-68.001767c0.076748-0.431835 0.165776-0.862647 0.275269-1.364067l62.193481-271.895527c0.13303-0.582261 0.280386-1.151219 0.450255-1.74269 13.582343-46.020126 38.804794-76.647681 71.171969-87.729064-43.196825-11.782348-75.075883-51.67287-75.075883-98.942453 0-56.504922 45.551452-102.476953 101.539604-102.476953 55.992245 0 101.544721 45.967938 101.544721 102.476953 0 42.291199-25.51614 78.68099-61.830207 94.314039l287.727097 0c-36.31202-15.633049-61.828161-52.021817-61.828161-94.314039 0-56.504922 45.551452-102.476953 101.544721-102.476953 55.992245 0 101.542674 45.967938 101.542674 102.476953 0 47.241954-31.845289 87.11815-75.009368 98.92301 30.396287 10.266831 56.054667 37.824467 77.875648 83.48439 0.143263 0.302899 0.285502 0.610914 0.388856 0.86674l118.494765 271.861758c0.189312 0.426719 0.360204 0.857531 0.524956 1.284249C951.223486 586.407919 948.267155 613.847875 933.282882 635.90524L933.282882 635.90524zM673.866574 104.200456c0 24.426319 19.608593 44.299949 43.708478 44.299949 24.103978 0 43.713594-19.869536 43.713594-44.299949 0-11.834536-4.572132-22.968108-12.868075-31.353079-8.266267-8.351202-19.219737-12.950963-30.845519-12.950963C693.475168 59.900507 673.866574 79.774137 673.866574 104.200456L673.866574 104.200456zM350.423021 148.500405c24.103978 0 43.712571-19.869536 43.712571-44.299949 0-24.427342-19.608593-44.299949-43.712571-44.299949-24.099884 0-43.708478 19.872606-43.708478 44.299949C306.714544 128.626775 326.323137 148.500405 350.423021 148.500405L350.423021 148.500405zM887.599424 581.992353 769.626545 311.314561c-17.642822-36.757159-35.314297-54.623062-54.026474-54.623062L352.237343 256.691499c-10.739599 0-30.688953 6.485715-43.760666 49.910737l-61.818951 270.298146-6.595208 36.648688 39.671535-0.047072 586.370825 0c7.618515 0 15.065114-3.993964 19.433608-10.417257C889.674689 596.996069 890.384863 589.709105 887.599424 581.992353L887.599424 581.992353zM887.599424 581.992353M730.513736 566.163853c-5.457292 0-10.659781-1.729387-15.051811-4.997827L485.768569 389.972015l-68.983117 81.219813c-4.813632 5.665023-11.82942 8.92016-19.243273 8.92016-6.053879 0-11.919471-2.193968-16.511046-6.173606-10.516518-9.123798-11.734252-25.188682-2.713808-35.8106l84.309174-99.275028c4.813632-5.666046 11.82942-8.92016 19.24839-8.92016 5.457292 0 10.663874 1.729387 15.050788 5.002944l248.657266 185.325869c11.166317 8.319479 13.558807 24.252357 5.335519 35.517935C746.170321 562.279383 738.543619 566.163853 730.513736 566.163853L730.513736 566.163853zM730.513736 566.163853"  horiz-adv-x="1024" />

    
    <glyph glyph-name="iconddfh" unicode="&#58939;" d="M958.75 397.599l-139.859 168.323c-2.36 2.859-5.887 4.501-9.584 4.501h-206.882v13.38c0 35.311-28.731 64.030-64.055 64.030h-201.914c-27.634 37.53-72.126 61.889-122.3 61.889-83.808 0-151.779-67.947-151.779-151.755 0-47.081 21.44-89.135 55.083-116.96-0.001 0.001-0.003 0.002-0.004 0.003v-232.802c0-35.325 28.73-64.055 64.029-64.055h6.747c6.139-48.366 47.539-85.876 97.546-85.876 49.985 0 91.384 37.51 97.523 85.876h155.071c0.521 0 1.036 0.028 1.554 0.040 0.26-0.016 0.518-0.040 0.782-0.040h135.633c6.139-48.366 47.537-85.876 97.522-85.876 50.008 0 91.408 37.51 97.547 85.876h26.183c35.3 0 64.030 28.73 64.030 64.055v181.438c-0.001 2.906-1.022 5.728-2.872 7.954zM129.91 570.423h71.79v93.15c0 6.886 5.571 12.456 12.456 12.456 6.886 0 12.457-5.57 12.457-12.456v-93.15h2.141c6.885 0 12.456-5.571 12.456-12.456 0-6.886-5.571-12.457-12.456-12.457h-2.159c-0.194-6.715-5.676-12.090-12.438-12.090-6.761 0-12.242 5.376-12.437 12.090h-71.808c-6.886 0-12.456 5.571-12.456 12.457 0 6.884 5.571 12.456 12.456 12.456zM285.777 83.189c-40.481 0-73.42 32.939-73.42 73.42 0 40.469 32.939 73.397 73.42 73.397 40.482 0 73.397-32.928 73.397-73.397-0.001-40.481-32.916-73.42-73.397-73.42zM577.513 208.208c0-21.577-17.564-39.144-39.142-39.144h-155.072c-6.141 48.345-47.539 85.851-97.522 85.851-50.006 0-91.405-37.506-97.546-85.851h-6.747c-21.578 0-39.119 17.566-39.119 39.144v216.044c21.377-11.492 45.822-18.016 71.79-18.016 83.809 0 151.78 67.898 151.78 151.731 0 23.246-5.237 45.268-14.583 64.962 0.001-0.002 0.003-0.005 0.004-0.008h187.013c21.578 0 39.142-17.552 39.142-39.119l0-375.593zM346.315 632.622c0 0 0.001-0.001 0.001-0.001 0 0 0 0.001-0.001 0.001zM348.069 629.44c0.003-0.007 0.007-0.014 0.011-0.021-0.005 0.007-0.008 0.014-0.011 0.021zM349.748 626.208c0.005-0.010 0.010-0.021 0.015-0.032-0.005 0.010-0.010 0.021-0.015 0.032zM773.86 83.189c-40.481 0-73.397 32.939-73.397 73.42 0 40.469 32.916 73.397 73.397 73.397 40.482 0 73.421-32.928 73.421-73.397 0-40.481-32.939-73.42-73.421-73.42zM936.71 208.208c0-21.577-17.54-39.144-39.12-39.144h-26.183c-6.142 48.345-47.541 85.851-97.547 85.851-49.983 0-91.38-37.506-97.521-85.851h-87.317c8.39 10.835 13.402 24.41 13.402 39.144v337.302h201.043l59.042-71.060-104.825 0c-35.325 0-64.055-28.73-64.055-64.055v-40.213c0-35.312 28.73-64.030 64.055-64.030h179.026l0-97.944zM936.71 331.062h-179.026c-21.579 0-39.144 17.553-39.144 39.12v40.213c0 21.579 17.564 39.144 39.144 39.144h124.679c0.274 0 0.541 0.024 0.81 0.041l53.537-64.437-0-54.081z"  horiz-adv-x="1024" />

    
    <glyph glyph-name="huo" unicode="&#59040;" d="M361.409 34.2c36.509-12.17 48.678 21.297 33.466 33.466-48.678 33.466-73.017 94.313-54.762 149.076 18.254 60.847 66.932 85.186 66.932 176.457 0 0 60.847-45.636 48.678-115.611 60.847 69.974 33.466 161.245 21.297 203.839 155.161-82.144 289.025-261.644 133.864-413.762-18.254-15.211 0-42.593 27.382-33.466 422.889 240.347 103.441 599.347 48.678 641.94 18.254-42.593 21.297-109.525-15.211-142.992-63.891 240.347-219.051 289.025-219.051 289.025 18.254-124.737-69.974-258.602-152.119-362.042-3.042 51.72-6.084 85.186-30.424 130.822-6.084-88.229-76.059-161.245-94.312-252.516-24.339-121.694 18.254-209.923 185.585-304.237v0z"  horiz-adv-x="1024" />

    
    <glyph glyph-name="laoshirenzheng1" unicode="&#58971;" d="M741.66784 734.75072l-1.77152 0c-95.5136 0-175.68256 10.86464-225.65888 68.01408-49.93024-57.14944-130.4576-68.01408-226.34496-68.01408-152.72448 0-156.90752-152.71936-156.90752-152.71936 0-85.3504-0.05632-166.74304-0.05632-343.11168 0-98.9952 236.7488-279.49056 366.08-310.20544 11.07968-2.62656 22.36928-2.62656 33.44384-0.06144 130.304 30.51008 366.8224 210.03264 366.8224 310.20544L897.27488 581.97504C897.28 693.28384 842.97216 734.75072 741.66784 734.75072zM842.48576 238.86336c0-56.832-187.66336-215.38304-307.5328-252.41088-13.75232-4.224-28.62592-4.224-42.32704 0-119.97696 37.18656-306.90304 195.74272-306.90304 252.4672L184.9344 472.12032l0.78848 108.13952c0.32256 10.16832 5.31456 99.69152 102.1696 99.69152 80.7936 0 162.72384 6.90176 226.35008 50.13504 63.57504-43.23328 145.49504-50.13504 227.42528-50.13504 77.26592 0 100.8128-22.90176 100.8128-97.97632L842.48064 238.86336zM508.89216 653.85984c-90.28608 0-165.18656-71.94624-165.18656-160.68608 0-88.7296 74.0864-167.17312 164.37248-167.17312 90.2912 0 164.27008 78.44352 164.27008 167.17312C672.34304 581.9136 599.17312 653.85984 508.89216 653.85984zM506.32192 375.808c-63.9488 0-115.79392 51.84-115.79392 115.78368 0 63.97952 51.84512 115.79904 115.79392 115.79904 63.9744 0 115.82464-51.81952 115.82464-115.79904C622.14656 427.648 570.29632 375.808 506.32192 375.808zM333.89568 149.95456c0 104.06912 98.10432 173.24544 185.20576 172.88192 103.82336-0.27648 140.75392-60.65152 151.33184-68.95616 4.13184 4.23936 32.26624 33.09568 32.26624 33.09568-44.65664 56.1664-106.87488 82.02752-183.59808 82.02752-128.95744 0-237.24544-92.24192-237.24544-219.01824L333.89568 149.95456zM584.15616 208.46592l75.92448-75.93472 138.99776 145.55648-27.82208 27.8272-112.00512-112.01024-43.3152 43.32544L584.15616 208.46592z"  horiz-adv-x="1024" />

    
    <glyph glyph-name="chanpin" unicode="&#58944;" d="M284.40576 793.9072c99.4304 0 179.93728-79.70816 179.93728-179.15904l0-179.93728-179.93728 0c-99.4304 0-179.15904 80.4864-179.15904 179.93728S184.95488 793.9072 284.40576 793.9072L284.40576 793.9072zM109.9776 157.77792c0 99.4304 80.50688 179.97824 179.95776 179.97824l179.15904 0 0-179.97824c0-98.63168-80.50688-179.13856-179.15904-179.13856C190.48448-21.36064 109.9776 59.14624 109.9776 157.77792L109.9776 157.77792zM744.50944 793.9072c-99.4304 0-179.13856-79.70816-179.13856-179.15904l0-179.93728 179.13856 0c99.4304 0 179.93728 80.4864 179.93728 179.93728S843.93984 793.9072 744.50944 793.9072L744.50944 793.9072zM918.9376 157.77792c0 99.4304-79.72864 179.97824-179.15904 179.97824l-179.95776 0 0-179.97824c0-98.63168 80.52736-179.13856 179.95776-179.13856S918.9376 59.14624 918.9376 157.77792L918.9376 157.77792z"  horiz-adv-x="1024" />

    
    <glyph glyph-name="shouye" unicode="&#58917;" d="M885.760031 311.483406c-5.91164 5.519714-14.232143 8.558933-23.428595 8.558933-18.744923 0-32.349779-12.30321-32.349779-29.254278L829.981656 49.347151c0-19.080567-18.86772-37.118386-38.824237-37.118386L629.48118 12.228765c-18.708084 0-32.286334-12.30321-32.286334-29.255301 0-16.95209 13.57825-29.256324 32.286334-29.256324l161.67624 0c57.013505 0 103.397928 42.899042 103.397928 95.628988L894.555347 290.788062C894.555347 298.955068 891.514081 306.113095 885.760031 311.483406zM1007.07605 385.37123 536.554744 824.544575c-3.808746 3.565199-13.592576 8.567119-23.469528 8.567119-9.844206 0-19.654642-5.015224-23.476691-8.575306L19.085172 385.388627c-4.022617-7.543813-9.859555-18.656919-10.365068-22.347984 0.072655-8.169053 4.867868-17.647939 10.217712-27.697829 4.473895-3.38305 13.229303-7.371898 22.068621-7.371898 9.876951 0 19.659759 5.001921 23.452131 8.552793l60.656475 56.606229 0-342.743108c0-52.827159 46.39875-95.803973 103.430674-95.803973l168.148651 0c18.689664 0 32.255635 12.302187 32.255635 29.254278L428.950004 177.031205l200.533222 0c18.708084 0 32.28838 12.329816 32.28838 29.316699 0 16.915251-13.580297 29.192879-32.28838 29.192879L396.693346 235.540783c-18.708084 0-32.286334-12.277628-32.286334-29.192879l0-188.05912L234.986407 18.288784c-19.973914 0-38.858006 18.039865-38.858006 37.120432L196.128401 459.436086l316.89337 295.758004 448.609251-412.592966c4.542456-4.190439 14.32731-8.630564 23.538089-8.630564 9.841136 0 19.655665 5.0142 23.479761 8.576329 4.291746 4.000104 8.734942 12.734022 8.804527 20.494777C1016.946862 366.811526 1010.989173 378.0945 1007.07605 385.37123z"  horiz-adv-x="1024" />

    
    <glyph glyph-name="shuaxin" unicode="&#58936;" d="M512.002558 896C227.562489 896 0 668.446718 0 384.001535c0-284.441091 227.561466-512.001535 512.002558-512.001535 284.446206 0 511.998465 227.561466 511.998465 512.001535 0 28.441347-18.957829 47.40736-47.409406 47.40736-28.443393 0-47.403268-18.966013-47.403268-47.40736 0-227.554305-189.634555-417.188861-417.185791-417.188861-227.555328 0-417.187837 189.634555-417.187837 417.188861 0 227.551236 189.632509 417.185791 417.187837 417.185791 75.850753 0 161.181955-18.967036 218.076925-66.370304l0-9.483518 0 0-47.409406-56.886786c-18.961921-18.966013 0-56.893947 28.441347-56.893947l218.077948-9.476357c18.959875 0 37.925888 28.443393 37.925888 47.404291L900.743933 858.073089c-9.483518 28.444416-47.409406 37.926911-66.367235 9.484541l-37.927934-56.886786C711.111424 867.55763 616.29875 896 512.002558 896L512.002558 896z"  horiz-adv-x="1024" />

    
    <glyph glyph-name="chanpin1" unicode="&#58909;" d="M768 576l-64 0L704 608C704 731.52 603.52 832 480 832 356.48 832 256 731.52 256 608L256 576 192 576C121.6 576 64 518.4 64 448l0-384c0-70.4 57.6-128 128-128l576 0c70.4 0 128 57.6 128 128L896 448C896 518.4 838.4 576 768 576zM320 608C320 696.32 391.68 768 480 768 568.32 768 640 696.32 640 608L640 576 320 576 320 608zM832 64c0-35.2-28.8-64-64-64L192 0c-35.2 0-64 28.8-64 64L128 448c0 35.2 28.8 64 64 64l64 0 0-96C256 398.08 270.08 384 288 384 305.92 384 320 398.08 320 416L320 512l320 0 0-96C640 398.08 654.08 384 672 384 689.92 384 704 398.08 704 416L704 512l64 0c35.2 0 64-28.8 64-64L832 64z"  horiz-adv-x="1024" />

    
    <glyph glyph-name="kuaidi" unicode="&#58888;" d="M845.038156 532.601597c-32.341466 32.340442-74.721103 50.480618-119.694243 50.480618H603.591662v48.942742c0 10.537828-7.343306 19.657574-17.879086 19.657575H150.737421c-10.536804 0-20.18078-9.119747-20.180779-19.657575v-373.925992c0-10.537828 9.645-18.019358 20.180779-18.019358h82.021406c-8.313949-12.286624-13.172285-28.152751-13.172285-44.323996 0-43.901131 35.716192-79.882509 79.619371-79.882509 43.901131 0 79.617323 36.113459 79.617323 80.014591 0 16.171245-4.857312 31.905291-13.172285 44.191914h263.58699c-8.313949-12.286624-13.172285-28.152751-13.172284-44.323996 0-43.901131 35.716192-79.882509 79.61937-79.882509 43.901131 0 79.617323 36.113459 79.617323 80.014591 0 16.171245-4.857312 31.905291-13.172285 44.191914h113.564241c10.53578 0 18.679764 7.48153 18.679764 18.019358v153.664709c0.001024 45.76665-17.391716 88.8927-49.335914 120.837923zM299.205913 153.766074c-22.862335 0-41.46326 18.600925-41.46326 41.462236 0 22.863359 18.600925 41.464284 41.46326 41.464284s41.462236-18.600925 41.462236-41.464284c0-22.861312-18.599901-41.462236-41.462236-41.462236z m396.480138 0c-22.862335 0-41.46326 18.600925-41.46326 41.462236 0 22.863359 18.600925 41.464284 41.46326 41.464284s41.462236-18.600925 41.462236-41.464284c0-22.861312-18.599901-41.462236-41.462236-41.462236z m160.316893 271.638825H738.744525V536.636729c0 2.469611-0.053242 4.824548-0.908187 6.990065 29.969123-2.990769 58.205833-15.990017 80.205033-37.991265 21.707393-21.708417 35.068072-49.51407 37.961573-80.23063z m-686.53866 188.394899h396.243621v-335.834386h-396.243621v335.834386z m434.127378-335.834386v267.23407h99.457149c-1.020814-2.047771-2.188043-5.847409-2.188043-8.562753v-128.924569c0-5.617035 2.770634-10.947382 7.060713-14.573983l2.605788-1.595214c3.443326-2.908858 7.952517-4.021822 12.45966-4.021821h132.480523v-109.55573h-251.87579z"  horiz-adv-x="1024" />

    
    <glyph glyph-name="mian" unicode="&#58886;" d="M967.51104 396.65664a457.30816 457.30816 0 0 1-0.83968 17.94048 411.81696 411.81696 0 0 1-3.54304 34.62144 446.73024 446.73024 0 0 1-27.2384 101.5552l-0.16896 0.4096c-0.55808 1.39776-1.1264 2.78528-1.69472 4.17792l-0.4352 1.0496a473.6 473.6 0 0 1-1.52576 3.61984l-0.6656 1.55136a464.2304 464.2304 0 0 1-1.3824 3.1744l-0.86528 1.95584a461.43488 461.43488 0 0 1-1.26464 2.80576l-1.03936 2.2784a431.80544 431.80544 0 0 1-4.7616 10.00448 412.37504 412.37504 0 0 1-3.50208 6.95296c-0.48128 0.94208-0.9728 1.88928-1.46432 2.83136l-1.0496 1.98656a496.26112 496.26112 0 0 1-4.10112 7.5776 358.72256 358.72256 0 0 1-2.6368 4.68992 403.98848 403.98848 0 0 1-4.03968 6.93248 464.95744 464.95744 0 0 1-6.9376 11.27936 474.81344 474.81344 0 0 1-5.00224 7.69024l-0.75264 1.13152a440.79104 440.79104 0 0 1-2.4064 3.55328l-0.54272 0.7936a423.7312 423.7312 0 0 1-2.67776 3.85536l-0.32256 0.4608a451.57376 451.57376 0 0 1-3.05152 4.2752 447.8464 447.8464 0 0 1-38.3744 46.2592l-0.13312 0.14336a450.6368 450.6368 0 0 1-3.13856 3.26656l-0.95232 0.98304c-0.70656 0.72704-1.42336 1.44896-2.13504 2.17088l-2.0736 2.09408-0.75776 0.74752c-2.16064 2.1504-4.34176 4.28544-6.5536 6.4-43.48416 41.5744-93.24032 72.61184-146.09408 93.2096a443.78624 443.78624 0 0 1-162.3552 30.72512 450.52928 450.52928 0 0 1-73.45152-4.96128 448.58368 448.58368 0 0 1-95.87712-25.40544l-0.05632-0.02048a441.79456 441.79456 0 0 1-6.2208-2.46784l-2.23744-0.91136c-5.5296-2.26816-11.02848-4.64384-16.4864-7.1424-54.62016-24.9856-103.00928-60.28288-143.8208-104.89856-51.072-55.82848-85.34016-121.18528-103.0912-189.7984-14.93504-56.95488-18.8416-117.76-9.6-179.56864 16.13824-107.97568 69.70368-204.31872 151.94112-274.49344a446.21824 446.21824 0 0 1 2.9696-2.52416c81.152-68.4032 182.20544-105.3184 288.27136-105.3184 6.7584 0 13.5424 0.1536 20.33664 0.45056a23.76704 23.76704 0 0 1 16.5888 7.75168 23.76192 23.76192 0 0 1 6.2464 17.21344 23.77216 23.77216 0 0 1-7.74144 16.5888 23.74144 23.74144 0 0 1-17.21344 6.25664c-92.47744-4.096-181.56544 23.18336-255.04256 77.39392-0.34304 0.28672-0.67584 0.57856-1.03424 0.84992a408.84224 408.84224 0 0 0-22.43584 17.84832c-0.72704 0.62464-1.45408 1.24416-2.176 1.87392l-0.23552 0.2048c-2.47808 2.16064-4.93568 4.352-7.36768 6.5792-112.9984 103.43936-153.08288 257.24928-117.36576 396.21632 30.44352 116.85376 112.8704 215.61856 224.54784 265.56928 1.08544 0.48128 2.16576 0.9728 3.25632 1.44384a392.97024 392.97024 0 0 0 10.27584 4.31104l0.80896 0.32256C406.60992 771.87072 450.67264 781.34272 496.0768 783.36c52.03968 2.304 103.1936-5.29408 152.03328-22.59456 5.86752-2.07872 11.66848-4.3008 17.408-6.64064 0.59904-0.24576 1.20832-0.48128 1.80736-0.73216 1.43872-0.59392 2.8672-1.21856 4.3008-1.83296a401.99168 401.99168 0 0 0 80.55808-46.30016 408.04352 408.04352 0 0 0 22.41024-17.83296l0.60928-0.512c1.53088-1.31584 3.03616-2.65728 4.54144-3.9936 1.31584-1.16224 2.6368-2.32448 3.93728-3.51232a404.37248 404.37248 0 0 0 60.6464-69.40672 417.56672 417.56672 0 0 0 7.08096-10.62912c1.4592-2.27328 2.89792-4.5568 4.31104-6.86592 34.8416-56.73472 55.05536-121.64608 58.38848-189.93664 0.04096-0.88064 0.14336-1.75104 0.27648-2.6112 3.83488-88.1152-21.31968-174.37696-72.6272-247.296l-191.86688 0.3584c-29.52704-1.73568-43.91424 16.2816-42.17344 40.6016v88.576c0 13.9008-8.68864 20.84864-26.0608 20.84864s-26.05056-6.94784-26.05056-20.84352v-112.03584c1.7408-41.68704 31.26272-63.39584 88.58112-65.13152l218.63424 0.79872 0.11264 0.16384c4.58752 0 9.1136 2.08896 12.04224 6.0672 59.648 80.75264 93.696 182.05696 92.42624 282.4448 0.0768 0.70656 0.128 1.41824 0.10752 2.1504z m-714.13248-242.1248c-20.8384-6.94784-29.52704-19.10784-26.05056-36.47488 8.68352-17.37216 23.4496-23.4496 44.288-18.23744 130.27328 32.9984 220.59008 101.6064 270.96576 205.824h208.43008c31.26272-1.7408 46.0288 17.36704 44.288 57.3184v117.248c3.47648 34.73408-13.02528 50.36544-49.50016 46.89408h-140.69248c22.5792 34.7392 37.34528 60.78976 44.29312 78.16192 19.10784 41.68704 3.47648 62.53056-46.8992 62.53056h-138.0864c3.47648 5.20704 6.08256 8.68352 7.81824 10.4192 8.68864 20.8384 5.21216 36.47488-10.4192 46.8992-15.63136 6.94784-28.66176 0.8704-39.08096-18.23744-46.8992-95.53408-105.08288-163.2768-174.56128-203.22304-17.37216-10.4192-22.5792-23.4496-15.63136-39.08096 10.4192-13.89568 25.18528-15.63136 44.288-5.21216l15.63136 10.42432c1.7408 0 3.47648 0.8704 5.21216 2.60096v-117.23776c-1.73568-34.7392 13.89568-51.24096 46.8992-49.50528h135.4752c-39.94624-72.94976-115.50208-123.32032-226.6624-151.11168z m466.36544 323.072c17.37216 3.47136 25.1904-4.34688 23.4496-23.4496v-75.55584c0-17.37216-7.81312-25.1904-23.4496-23.4496h-164.13696c6.94784 31.26272 11.2896 72.07936 13.02528 122.45504h151.11168zM433.152 613.07904h143.29856c6.94784 0 11.2896-0.8704 13.02528-2.60096 1.7408-1.7408 0.8704-5.21216-2.60608-10.42432-8.68352-19.10784-24.32-43.42272-46.8992-72.94976H360.20736c24.32 22.5792 48.63488 51.23584 72.94976 85.97504z m-59.92448-257.93536c-17.36704-1.73568-26.05056 6.08256-26.05056 23.4496V456.7552c1.73568 13.89568 10.4192 20.84352 26.05056 20.84352h140.6976c-1.7408-13.89568-1.7408-18.23744 0-13.02528-5.21728-55.58272-9.55904-92.0576-13.0304-109.42976H373.22752z"  horiz-adv-x="1024" />

    
    <glyph glyph-name="gouwuche1" unicode="&#58882;" d="M355.728 69.616c-26.554 0-48.061-21.507-48.061-48.061s21.507-48.061 48.061-48.061 48.061 21.507 48.061 48.061-21.507 48.061-48.061 48.061z m412.756 0c-26.554 0-48.061-21.507-48.061-48.061s21.507-48.061 48.061-48.061 48.061 21.507 48.061 48.061-21.507 48.061-48.061 48.061z m73.253 46.619H351.918c-19.974 0-39.496 7.668-54.971 21.592-15.492 13.939-25.371 32.746-27.815 52.955l-0.004 0.034-51.159 360.168-29.084 168.179-0.058 0.417c-2.246 16.221-17.087 29.925-32.408 29.925H118c-13.807 0-25 11.193-25 25s11.193 25 25 25h38.418c40.122 0 75.994-31.859 81.871-72.613l29.074-168.122 51.404-361.965c0.994-8.221 5.121-15.959 11.622-21.809 6.28-5.65 13.925-8.762 21.528-8.762h489.819c13.808 0 25-11.193 25-25s-11.191-24.999-24.999-24.999zM389.532 238.731c-12.972 0-23.937 10.019-24.906 23.163-1.015 13.77 9.325 25.755 23.094 26.771l408.873 30.139 0.59 0.016c16.205 0.428 30.604 12.955 32.781 28.521l0.132 0.841 47.394 271.179c0.016 0.086 0.024 0.151 0.032 0.216 1.395 11.716-1.94 23.753-8.703 31.425-4.64 5.25-10.736 8.037-17.613 8.037H329.09c-13.807 0-25 11.193-25 25s11.193 25 25 25h522.116c21.316 0 40.886-8.861 55.102-24.952 16.142-18.311 23.936-44.625 20.865-70.411a53.075 53.075 0 0 0-0.433-2.946l-47.323-270.777c-5.732-39.299-40.099-69.724-80.271-71.097L391.396 238.8a25.4 25.4 0 0 0-1.864-0.069z"  horiz-adv-x="1024" />

    
    <glyph glyph-name="renwu" unicode="&#58943;" d="M831.825474 832.059831H191.939717C121.2479 832.059831 63.940169 774.7521 63.940169 704.060283v-639.885757C63.940169-6.517291 121.2479-63.825022 191.939717-63.825022h639.885757c70.691817 0 127.999548 57.307731 127.999548 127.999548V704.060283C959.825022 774.7521 902.517291 832.059831 831.825474 832.059831zM895.884854 64.001129A63.835408 63.835408 0 0 0 831.912173 0.115146H192.087827c-17.112123 0-33.270563 6.574639-45.372232 18.67631S127.880338 46.889006 127.880338 64.001129V703.998871A64.236389 64.236389 0 0 0 192.087827 768.119662h639.824346A64.037705 64.037705 0 0 0 895.884854 703.998871v-639.997742zM791.998335 544.148449h-255.999097a31.970084 31.970084 0 0 1 0-63.940169h255.999097a31.970084 31.970084 0 0 1 0 63.940169zM791.998335 288.026529h-255.999097a31.970084 31.970084 0 0 1 0-63.940169h255.999097a31.970084 31.970084 0 0 1 0 63.940169zM344.001722 368.002314c-61.855792 0-111.985607-50.144265-111.985607-111.985606s50.144265-111.985607 111.985607-111.985607 111.985607 50.144265 111.985606 111.985607-50.129815 111.985607-111.985606 111.985606z m33.982213-145.982269a48.045438 48.045438 0 1 0 14.088511 33.982213 47.745605 47.745605 0 0 0-14.088511-33.985826zM417.395643 598.605965L311.999125 493.21306 270.6078 534.607997a31.970084 31.970084 0 1 1-45.213286-45.213285l63.997968-64.001581a31.970084 31.970084 0 0 1 45.213286 0l127.999548 127.999549a31.970084 31.970084 0 0 1-45.209673 45.213285z"  horiz-adv-x="1024" />

    
    <glyph glyph-name="lajixiang" unicode="&#58883;" d="M944 704H755.2v44.8c0 54.4-44.8 99.2-99.2 99.2H361.6c-54.4 0-99.2-44.8-99.2-99.2V704H83.2c-12.8 0-25.6-9.6-25.6-25.6 0-12.8 9.6-25.6 25.6-25.6H144v-633.6c0-54.4 44.8-99.2 99.2-99.2h550.4c54.4 0 99.2 44.8 99.2 99.2V652.8H944c12.8 0 25.6 9.6 25.6 25.6-3.2 12.8-9.6 25.6-25.6 25.6z m-627.2 44.8c0 25.6 22.4 48 48 48h294.4c25.6 0 48-22.4 48-48V704H316.8v44.8z m524.8-720c0-28.8-16-57.6-41.6-57.6H249.6c-25.6 0-54.4 19.2-54.4 44.8l3.2 636.8h643.2v-624zM368 515.2c-16 0-25.6-9.6-25.6-25.6v-342.4c0-16 12.8-25.6 25.6-25.6s25.6 9.6 25.6 25.6V489.6c-3.2 12.8-9.6 25.6-25.6 25.6zM528 515.2c-16 0-25.6-9.6-25.6-25.6v-342.4c0-16 12.8-25.6 25.6-25.6s25.6 9.6 25.6 25.6V489.6c-3.2 12.8-9.6 25.6-25.6 25.6zM688 515.2c-16 0-25.6-9.6-25.6-25.6v-342.4c0-16 12.8-25.6 25.6-25.6s25.6 9.6 25.6 25.6V489.6c-3.2 12.8-9.6 25.6-25.6 25.6z"  horiz-adv-x="1024" />

    
    <glyph glyph-name="weixin" unicode="&#59195;" d="M352.814545 510.603636m-33.512727 0a33.512727 33.512727 0 1 1 67.025455 0 33.512727 33.512727 0 1 1-67.025455 0ZM502.690909 511.534545m-33.512727 0a33.512727 33.512727 0 1 1 67.025454 0 33.512727 33.512727 0 1 1-67.025454 0ZM576.232727 361.658182m-23.272727 0a23.272727 23.272727 0 1 1 46.545455 0 23.272727 23.272727 0 1 1-46.545455 0ZM694.458182 359.796364m-23.272727 0a23.272727 23.272727 0 1 1 46.545454 0 23.272727 23.272727 0 1 1-46.545454 0ZM512 896C229.003636 896 0 666.996364 0 384s229.003636-512 512-512 512 229.003636 512 512S794.996364 896 512 896z m-87.505455-630.225455c-26.996364 0-48.407273 5.585455-75.403636 11.17091l-75.403636-37.236364 21.410909 64.232727c-53.992727 37.236364-85.643636 85.643636-85.643637 145.221818 0 102.4 96.814545 182.458182 215.04 182.458182 105.192727 0 198.283636-64.232727 216.901819-150.807273-6.516364 0.930909-13.963636 0.930909-20.48 0.93091-102.4 0-182.458182-76.334545-182.458182-170.356364 0-15.825455 2.792727-30.72 6.516363-44.683636-7.447273 0-13.963636-0.930909-20.48-0.93091z m314.647273-75.403636l15.825455-53.992727-58.647273 32.581818c-21.410909-5.585455-42.821818-11.170909-64.232727-11.170909-102.4 0-182.458182 69.818182-182.458182 155.461818s80.058182 155.461818 182.458182 155.461818c96.814545 0 182.458182-69.818182 182.458182-155.461818 0-47.476364-31.650909-90.298182-75.403637-122.88z"  horiz-adv-x="1024" />

    
    <glyph glyph-name="dianhua" unicode="&#58962;" d="M981.035477 137.462537c-26.597403 26.085914-60.355644 50.637363-83.372628 67.004995-31.200799 21.994006-63.936064 42.453546-92.57942 57.286714-45.010989 23.528472-63.936064 26.597403-74.165835 26.597402-19.948052 0-37.338661-10.741259-52.171828-31.712287-9.718282-14.321678-17.390609-31.712288-25.062937-49.102897-5.114885-12.275724-13.298701-30.689311-19.436563-38.361639l-2.045954-2.557442-3.068931 0.511488c-6.137862 1.534466-29.666334 8.695305-80.303697 42.965035-39.896104 27.108891-83.372627 62.401598-116.61938 94.625375-31.712288 32.735265-67.004995 76.211788-94.625375 116.107892-34.26973 50.637363-41.942058 74.165834-42.965035 80.303696l-0.511488 3.068931 2.557442 2.045954c7.672328 6.137862 26.085914 13.81019 38.361639 19.436564 16.879121 7.160839 34.26973 14.833167 49.102897 25.062937 20.971029 14.321678 31.712288 32.223776 31.712287 52.171828 0 10.22977-2.557443 29.154845-26.597402 74.165834-14.833167 28.131868-35.292707 60.867133-57.286714 92.579421-16.367632 23.528472-41.430569 56.775225-67.004995 83.372627-28.643357 29.666334-49.614386 42.453546-69.050949 42.453546-48.591409 0-106.901099-72.631369-123.780219-95.136863-21.482517-28.643357-72.11988-103.320679-72.119881-173.394605 0-65.470529 43.988012-150.377622 80.815185-210.733267 49.614386-80.815185 118.665335-167.768232 193.854146-244.491508l25.062937-25.062937c77.234765-75.188811 164.187812-143.728272 244.491509-193.854146 59.844156-36.827173 145.262737-80.815185 210.733266-80.815185 29.154845 0 59.332667 8.695305 86.953047 20.971029v0.511488c8.183816 4.091908 14.321678 12.787213 14.321679 22.505495 0 13.81019-11.252747 25.574426-25.574426 25.574426-4.091908 0-7.672328-1.022977-11.252747-2.557443-23.528472-10.22977-46.033966-15.344655-63.936064-15.344655-41.430569 0-108.435564 26.597403-184.135864 73.142857-77.746254 47.568432-161.118881 114.061938-235.796204 186.693306l-24.03996 24.039961c-72.631369 74.677323-139.124875 158.04995-186.693307 235.796203-46.545455 75.7003-73.142857 142.705295-73.142857 184.135864 0 36.827173 22.505495 88.999001 59.844156 139.636364 16.367632 21.994006 34.26973 42.453546 51.148851 56.775225 17.902098 15.856144 28.643357 19.436563 31.200799 20.45954l2.045954 0.511489 2.045954-1.022977c11.252747-5.114885 46.033966-34.781219 97.182818-109.458542 19.436563-28.131868 37.338661-57.286713 50.637362-82.34965 16.367632-31.200799 19.436563-45.010989 19.948052-48.591409l0.511489-2.045954-1.022977-1.534465c-1.022977-2.045954-4.603397-5.626374-13.81019-11.252747-9.718282-6.137862-23.016983-11.252747-35.292707-16.879121-14.833167-6.649351-30.689311-13.298701-42.965035-21.482518-19.436563-12.787213-28.643357-28.131868-28.643357-46.033966 0-9.206793 0.511489-36.315684 52.683317-112.527472 29.154845-42.453546 66.493506-88.487512 100.251748-123.268732l0.511488-0.511488c34.781219-33.758242 80.815185-71.608392 123.268732-100.251748 76.211788-51.66034 103.320679-52.683317 112.527472-52.683317h1.022977c17.390609 0 32.735265 9.718282 45.010989 28.643357 8.183816 12.275724 14.833167 27.62038 21.482518 42.965035 5.626374 12.275724 10.741259 25.574426 16.879121 35.292707 5.114885 8.695305 8.695305 12.275724 11.252747 13.81019l1.534465 1.022977 2.045954-0.511489c3.58042-0.511489 16.879121-3.58042 48.591409-19.948052 24.551449-12.787213 54.217782-31.200799 82.34965-50.637362 74.677323-51.148851 103.832168-85.93007 109.458542-97.182818l1.022977-2.045954-0.511489-2.045954c-1.022977-2.557443-5.114885-13.298701-20.45954-31.200799-5.626374-6.649351-11.764236-13.298701-18.925075-19.948052l-0.511489-0.511488c-4.603397-4.603397-7.160839-10.741259-7.160839-17.39061 0-13.81019 11.252747-25.574426 25.574426-25.574425 7.160839 0 13.298701 2.557443 17.902098 7.160839 26.597403 25.574426 55.240759 59.844156 55.240759 90.021978-2.045954 20.971029-15.344655 42.453546-44.4995 70.585414z"  horiz-adv-x="1026" />

    
    <glyph glyph-name="shijuan" unicode="&#58913;" d="M847.644444-128H150.755556c-48.355556 5.688889-88.177778 45.511111-93.866667 93.866667V802.133333C62.577778 850.488889 102.4 887.466667 150.755556 896h466.488888l327.111112-278.755556v-651.377777c-8.533333-48.355556-48.355556-88.177778-96.711112-93.866667z m0 696.888889h-184.888888c-25.6 2.844444-42.666667 22.755556-45.511112 45.511111V802.133333H196.266667c-25.6 0-45.511111-19.911111-45.511111-45.511111v-745.244444c5.688889-22.755556 22.755556-42.666667 45.511111-45.511111h605.866666c25.6 2.844444 45.511111 22.755556 45.511111 45.511111V568.888889z m-546.133333-512c-5.688889 0-8.533333 5.688889-8.533333 8.533333 0 2.844444 2.844444 8.533333 5.688889 8.533334C429.511111 128 571.733333 156.444444 711.111111 162.133333v-2.844444c11.377778 0 25.6 2.844444 36.977778 2.844444v-5.688889c-142.222222-14.222222-281.6-42.666667-415.288889-85.333333-8.533333-8.533333-19.911111-11.377778-31.288889-14.222222zM625.777778 219.022222c-14.222222 0-28.444444 2.844444-36.977778 14.222222s-17.066667 22.755556-17.066667 36.977778c0 39.822222 11.377778 76.8 36.977778 108.088889 22.755556 31.288889 56.888889 54.044444 93.866667 68.266667 14.222222 0 25.6-8.533333 31.288889-19.911111-2.844444-2.844444-5.688889-5.688889-8.533334-5.688889 14.222222-5.688889 19.911111-17.066667 19.911111-31.288889 2.844444-79.644444-48.355556-150.755556-119.466666-170.666667z m76.8 182.044445c-5.688889-2.844444-14.222222-8.533333-19.911111-14.222223-2.844444 0-2.844444 2.844444-2.844445 5.688889-42.666667-25.6-71.111111-71.111111-73.955555-119.466666 0-5.688889 2.844444-25.6 11.377777-22.755556 14.222222 5.688889 25.6 11.377778 34.133334 22.755556l28.444444 31.288889c17.066667 22.755556 28.444444 51.2 34.133334 79.644444 5.688889 8.533333-2.844444 14.222222-11.377778 17.066667z m-162.133334 199.111111H201.955556c-11.377778 0-19.911111 8.533333-19.911112 19.911111 0 5.688889 2.844444 11.377778 5.688889 14.222222 2.844444 5.688889 8.533333 8.533333 14.222223 8.533333H540.444444c5.688889 0 11.377778-2.844444 14.222223-5.688888 2.844444-2.844444 5.688889-8.533333 5.688889-14.222223s-2.844444-11.377778-5.688889-14.222222-8.533333-8.533333-14.222223-8.533333zM201.955556 557.511111H369.777778c5.688889 0 11.377778-2.844444 14.222222-5.688889s5.688889-8.533333 5.688889-14.222222-2.844444-11.377778-5.688889-14.222222-8.533333-5.688889-14.222222-5.688889H201.955556c-11.377778 0-19.911111 8.533333-19.911112 19.911111 0 5.688889 2.844444 11.377778 5.688889 14.222222 2.844444 2.844444 8.533333 5.688889 14.222223 5.688889z m108.088888-196.266667l-31.288888-14.222222c-2.844444-2.844444-5.688889-2.844444-8.533334-2.844444-2.844444 0-2.844444 5.688889-2.844444 8.533333 0 8.533333 5.688889 14.222222 14.222222 17.066667 17.066667 14.222222 34.133333 25.6 54.044444 34.133333 8.533333-2.844444 14.222222-11.377778 17.066667-19.911111 0-8.533333 0-8.533333-39.822222-99.555556-14.222222-28.444444-25.6-59.733333-28.444445-91.022222 0-2.844444 2.844444-8.533333 2.844445-11.377778v-2.844444l-2.844445-2.844444c-2.844444 0-5.688889 0-5.688888 2.844444-14.222222 0-25.6 8.533333-28.444445 22.755556 0 22.755556 5.688889 48.355556 14.222222 68.266666 11.377778 31.288889 28.444444 59.733333 45.511111 91.022222z m250.311112 2.844445c5.688889-76.8-42.666667-145.066667-116.622223-164.977778-14.222222 0-28.444444 2.844444-36.977777 14.222222-11.377778 8.533333-17.066667 22.755556-17.066667 36.977778 0 39.822222 11.377778 76.8 36.977778 108.088889 22.755556 31.288889 56.888889 54.044444 93.866666 68.266667 14.222222 0 25.6-8.533333 31.288889-19.911111-2.844444-2.844444-5.688889-5.688889-8.533333-5.688889 8.533333-8.533333 17.066667-22.755556 17.066667-36.977778z m-39.822223 17.066667c-5.688889-2.844444-14.222222-8.533333-19.911111-14.222223-2.844444 0-2.844444 2.844444-2.844444 5.688889-42.666667-25.6-71.111111-71.111111-73.955556-119.466666 0-5.688889 2.844444-25.6 11.377778-22.755556 14.222222 5.688889 25.6 11.377778 34.133333 22.755556l28.444445 31.288888c17.066667 22.755556 28.444444 51.2 34.133333 79.644445 5.688889 8.533333-2.844444 14.222222-11.377778 17.066667z m-258.844444-273.066667c130.844444 54.044444 273.066667 82.488889 412.444444 88.177778v-2.844445c14.222222 0 25.6 2.844444 36.977778 2.844445v-5.688889c-142.222222-14.222222-281.6-42.666667-415.288889-85.333334-11.377778-5.688889-19.911111-8.533333-31.288889-11.377777h-2.844444c-2.844444 0-5.688889 2.844444-5.688889 8.533333l5.688889 5.688889z"  horiz-adv-x="1024" />

    
    <glyph glyph-name="VIP" unicode="&#59022;" d="M605.693 28.163h-63.715v304.621h63.715v-304.621M881.428 176.348c-16.991-25.486-43.449-38.108-79.493-38.108h-73.060v-110.077h-63.715v304.621h139.325c29.491 0 52.671-8.738 69.42-26.093 16.869-17.355 25.244-41.142 25.244-71.483 0.122-21.36-5.825-41.021-17.718-58.861M186.383 28.163v648.685c0 2.67-2.185 4.854-4.854 4.854h-49.637c-2.67 0-4.854 2.185-4.854 4.854v49.759c0 2.67 2.185 4.854 4.854 4.854h227.92c2.67 0 4.854-2.185 4.854-4.854v-292.242l297.703 295.641c0.85 0.85 2.185 1.456 3.398 1.456h221.972c4.369 0 6.432-5.219 3.398-8.253l-704.754-704.754M822.446 270.404c-8.738 6.432-23.059 9.709-42.962 9.709h-50.608v-89.202h59.104c20.389 0 34.224 6.19 41.628 18.569 4.005 6.796 5.947 16.384 5.947 28.763 0 14.928-4.369 25.607-13.107 32.161M822.446 270.404z"  horiz-adv-x="1024" />

    
    <glyph glyph-name="chenggong2" unicode="&#59027;" d="M937.984 154.624c-6.144-10.24-18.432-14.336-28.672-8.192-10.24 6.144-14.336 18.432-8.192 28.672 118.784 212.992 40.96 481.28-172.032 598.016-212.992 118.784-481.28 40.96-598.016-172.032s-40.96-481.28 172.032-598.016c153.6-86.016 339.968-69.632 479.232 32.768 8.192 6.144 22.528 4.096 28.672-4.096 6.144-8.192 4.096-22.528-4.096-28.672-151.552-112.64-356.352-129.024-522.24-36.864-233.472 129.024-317.44 421.888-188.416 653.312 129.024 233.472 421.888 317.44 653.312 188.416 233.472-126.976 317.44-419.84 188.416-653.312z m-647.168 243.712l190.464-169.984 282.624 303.104c8.192 8.192 20.48 8.192 28.672 0 8.192-8.192 8.192-20.48 0-28.672l-311.296-331.776-219.136 198.656c-8.192 8.192-8.192 20.48-2.048 28.672 8.192 8.192 20.48 8.192 30.72 0z"  horiz-adv-x="1024" />

    
    <glyph glyph-name="pinpai" unicode="&#58993;" d="M903.68 622.08L524.8 842.24c-5.12 2.56-7.68 2.56-12.8 2.56s-7.68 0-12.8-2.56L120.32 622.08c-7.68-5.12-12.8-12.8-12.8-20.48v-437.76c0-7.68 5.12-15.36 12.8-20.48l378.88-217.6c5.12-2.56 7.68-2.56 12.8-2.56s7.68 0 12.8 2.56l378.88 217.6c7.68 5.12 12.8 12.8 12.8 20.48V601.6c-2.56 10.24-7.68 17.92-12.8 20.48z m-40.96-440.32L512-20.48 161.28 181.76V586.24L512 788.48l350.72-202.24v-404.48zM391.68 591.36c-5.12-2.56-7.68-12.8-7.68-25.6v-376.32c0-7.68 2.56-12.8 5.12-17.92 2.56-5.12 10.24-7.68 20.48-7.68 7.68 0 15.36 2.56 17.92 7.68 5.12 5.12 5.12 10.24 5.12 17.92V358.4h5.12l181.76-184.32c5.12-5.12 12.8-7.68 17.92-7.68s12.8 2.56 17.92 7.68c2.56 2.56 5.12 7.68 5.12 10.24 0 5.12 0 7.68-2.56 12.8s-5.12 10.24-7.68 12.8c-2.56 5.12-7.68 10.24-12.8 12.8L504.32 358.4h17.92c43.52 0 76.8 10.24 99.84 30.72 23.04 20.48 35.84 51.2 35.84 92.16s-12.8 71.68-35.84 89.6c-23.04 17.92-56.32 28.16-99.84 28.16h-99.84c-15.36-2.56-25.6-5.12-30.72-7.68z m43.52-38.4h87.04c28.16 0 48.64-5.12 64-17.92 15.36-12.8 23.04-30.72 23.04-58.88 0-28.16-7.68-46.08-23.04-58.88-15.36-12.8-35.84-17.92-64-17.92H435.2v153.6z"  horiz-adv-x="1024" />

    
    <glyph glyph-name="dianhua1" unicode="&#58908;" d="M65.771 393.818c0-246.632 199.937-446.566 446.57-446.565 246.613 0 446.549 199.934 446.551 446.565 0 246.633-199.936 446.549-446.55 446.55-246.635-0.001-446.57-199.917-446.571-446.55z m651.885 173.77c31.489-31.473 1.642-148.828-114.292-264.773C487.396 186.869 370.06 157.071 338.589 188.508c-27.278 27.315-74.96 60.574-12.892 110.423 62.087 49.886 79.429 25.343 107.582-2.772 19.674-19.711 69.436 21.368 112.394 64.328 42.94 42.996 83.986 92.719 64.368 112.43-28.155 28.153-52.679 45.511-2.792 107.562 49.904 62.049 83.125 14.405 110.406-12.891z"  horiz-adv-x="1024" />

    
    <glyph glyph-name="tejiajipiaobiaoqian" unicode="&#59596;" d="M826.965333-19.029333l-294.570666 144.064-314.026667-145.216C183.338667-38.784 149.333333-18.453333 149.333333 21.354667V746.666667A64.085333 64.085333 0 0 0 213.376 810.666667h618.581333A63.936 63.936 0 0 0 896 746.645333V21.333333c0-39.936-34.090667-59.989333-69.034667-40.384zM192 746.624v-725.269333c0-7.573333-0.32-7.381333 6.4-3.84L522.666667 168.170667a21.333333 21.333333 0 0 0 20.437333-0.234667l304.725333-149.76c6.464-3.626667 5.482667-4.181333 5.482667 3.2V746.624A21.269333 21.269333 0 0 1 831.957333 768H213.376C201.621333 768 192 758.4 192 746.645333zM579.712 533.333333h81.493333c11.84 0 21.461333-9.472 21.461334-21.333333 0-11.776-9.6-21.333333-21.482667-21.333333H554.666667v-85.333334h106.517333c11.861333 0 21.482667-9.472 21.482667-21.333333 0-11.776-9.6-21.333333-21.482667-21.333333H554.666667v-127.850667c0-11.861333-9.472-21.482667-21.333334-21.482667-11.776 0-21.333333 9.578667-21.333333 21.482667V362.666667h-106.517333A21.354667 21.354667 0 0 0 384 384c0 11.776 9.6 21.333333 21.482667 21.333333H512v85.333334h-106.517333A21.354667 21.354667 0 0 0 384 512c0 11.776 9.6 21.333333 21.482667 21.333333h81.472l-97.813334 114.133334a21.333333 21.333333 0 0 0 32.384 27.733333L533.333333 544.810667l111.786667 130.432a21.333333 21.333333 0 1 0 32.426667-27.776L579.690667 533.333333z"  horiz-adv-x="1024" />

    
    <glyph glyph-name="mokuaiguanli" unicode="&#58899;" d="M896 864h-256a96 96 0 0 1-96-96v-256a96 96 0 0 1 96-96h256a96 96 0 0 1 96 96V768a96 96 0 0 1-96 96z m32-352a32 32 0 0 0-32-32h-256a32 32 0 0 0-32 32V768a32 32 0 0 0 32 32h256a32 32 0 0 0 32-32zM64 672a32 32 0 0 1 12.16 2.56 37.12 37.12 0 0 1 10.56 6.72 32 32 0 0 1 6.72 34.88 32 32 0 0 1-6.72 10.56A32 32 0 0 1 57.6 736a20.8 20.8 0 0 1-5.76-1.92 23.68 23.68 0 0 1-5.76-2.88l-4.8-3.84a32 32 0 0 1-6.72-10.56A32 32 0 0 1 32 704a32 32 0 0 1 32-32zM149.76 768a32 32 0 0 1 17.6 5.44 160 160 0 0 0 115.2 24.32 32 32 0 1 1 10.56 64 225.92 225.92 0 0 1-160-34.24A32 32 0 0 1 149.76 768zM377.92 792a32 32 0 0 1-2.56-45.12A160 160 0 0 0 416 640v-128a32 32 0 0 0-32-32H256a160 160 0 0 0-150.72 106.56 32 32 0 0 1-60.16-21.44A224 224 0 0 1 256 416h128a96 96 0 0 1 96 96V640a224 224 0 0 1-56.96 149.44 32 32 0 0 1-45.12 2.56zM896 352h-256a96 96 0 0 1-96-96v-256a96 96 0 0 1 96-96h256a96 96 0 0 1 96 96v256a96 96 0 0 1-96 96z m32-352a32 32 0 0 0-32-32h-256a32 32 0 0 0-32 32v256a32 32 0 0 0 32 32h256a32 32 0 0 0 32-32zM384 352H128a96 96 0 0 1-96-96v-256a96 96 0 0 1 96-96h256a96 96 0 0 1 96 96v256a96 96 0 0 1-96 96z m32-352a32 32 0 0 0-32-32H128a32 32 0 0 0-32 32v256a32 32 0 0 0 32 32h256a32 32 0 0 0 32-32z"  horiz-adv-x="1024" />

    
    <glyph glyph-name="jiantou2" unicode="&#58898;" d="M511.31 226.6a61.19 61.19 0 0 0-43.25 17.79l-237.12 237.2a35 35 0 0 0 49.55 49.55l230.89-230.9 230.9 230.89a35 35 0 1 0 49.55-49.55L554.7 244.46a61.41 61.41 0 0 0-43.39-17.86z"  horiz-adv-x="1024" />

    
    <glyph glyph-name="zhiding" unicode="&#58933;" d="M511.5648 537.6a12.7616 12.7616 0 0 1-9.6-3.8784L355.584 383.0912a12.8 12.8 0 1 1 18.368-17.8432L499.2 494.144V166.4a12.8 12.8 0 0 1 25.6 0V495.488l120.768-126.8736a12.8 12.8 0 1 1 18.5472 17.6512l-140.288 147.3536a12.7744 12.7744 0 0 1-10.5472 3.9168 12.9536 12.9536 0 0 1-1.7152 0.0512zM512-128C229.2352-128 0 101.2352 0 384S229.2352 896 512 896s512-229.2352 512-512-229.2352-512-512-512zM320 576h384a12.8 12.8 0 0 1 0 25.6H320a12.8 12.8 0 0 1 0-25.6z"  horiz-adv-x="1024" />

    
    <glyph glyph-name="tabguanbi" unicode="&#58937;" d="M737.28 216.06399999999996l-114.688 114.688c-16.384 16.384-40.96 16.384-57.344 0-16.384-16.384-16.384-40.96 0-57.344l114.688-114.688-114.688-114.688c-16.384-16.384-16.384-40.96 0-57.344 16.384-16.384 40.96-16.384 57.344 0l114.688 114.688 114.688-114.688c16.384-16.384 40.96-16.384 57.344 0 16.384 16.384 16.384 40.96 0 57.344L794.624 158.72000000000003l114.688 114.688c16.384 16.384 16.384 40.96 0 57.344-16.384 16.384-40.96 16.384-57.344 0L737.28 216.06399999999996zM1024 855.04v-737.28c0-135.168-110.592-245.76-245.76-245.76H40.96L1024 855.04zM778.24-128H40.96L1024 855.04v-737.28c0-135.168-110.592-245.76-245.76-245.76zM139.264-87.03999999999996H778.24c32.768 0 61.44 8.192 90.112 20.48-16.384 4.096-32.768 12.288-45.056 24.576L737.28 44.03200000000004 651.264-46.08000000000004c-32.768-32.768-81.92-32.768-114.688 0-32.768 32.768-32.768 81.92 0 114.688l86.016 86.016-90.112 90.112c-12.288 12.288-20.48 24.576-20.48 40.96L139.264-87.03999999999996z m454.656 430.08c-12.288 0-20.48-4.096-28.672-12.288-16.384-16.384-16.384-40.96 0-57.344l114.688-114.688-114.688-114.688c-16.384-16.384-16.384-40.96 0-57.344 16.384-16.384 40.96-16.384 57.344 0l114.688 114.688 114.688-114.688c16.384-16.384 40.96-16.384 57.344 0 16.384 16.384 16.384 40.96 0 57.344L794.624 158.72000000000003l114.688 114.688c16.384 16.384 16.384 40.96 0 57.344-16.384 16.384-40.96 16.384-57.344 0L737.28 216.06399999999996l-114.688 114.688c-8.192 8.192-20.48 12.288-28.672 12.288z m258.048-184.32l86.016-86.016c12.288-12.288 20.48-28.672 24.576-45.056 12.288 28.672 20.48 57.344 20.48 90.112V756.736l-372.736-372.736c16.384-4.096 28.672-12.288 40.96-20.48l86.016-86.016 86.016 86.016c32.768 32.768 81.92 32.768 114.688 0 32.768-32.768 32.768-81.92 0-114.688L851.968 158.72000000000003z"  horiz-adv-x="1024" />

    
    <glyph glyph-name="icon--" unicode="&#58960;" d="M696.32 855.04H327.68a122.88 122.88 0 0 1-122.88-122.88v-696.32a122.88 122.88 0 0 1 122.88-122.88h368.64a122.88 122.88 0 0 1 122.88 122.88V732.16a122.88 122.88 0 0 1-122.88 122.88z m81.92-819.2a81.92 81.92 0 0 0-81.92-81.92H327.68a81.92 81.92 0 0 0-81.92 81.92V732.16a81.92 81.92 0 0 0 81.92 81.92h368.64a81.92 81.92 0 0 0 81.92-81.92zM225.28 117.76h573.44v-40.96H225.28zM471.04 35.84h81.92v-40.96h-81.92zM225.28 691.2h471.04v-40.96H225.28zM737.28 691.2h61.44v-40.96h-61.44z"  horiz-adv-x="1024" />

    
    <glyph glyph-name="chengyuan" unicode="&#58881;" d="M500.6 382.8c44.7 35 73.4 89.5 73.4 150.7 0 105.7-85.6 191.3-191.3 191.3s-191.3-85.7-191.3-191.3c0-61.7 29.3-116.6 74.7-151.6C147.8 332.4 64.3 212 64.3 77.3v-0.1h0.1c0-17.7 14.5-32 32.2-32 17.8 0 32.2 14.4 32.2 32.1 0 1.1-0.1 2.2-0.2 3.3 2.3 139 115.9 260 255.8 260 140.3 0 254.3-121.7 255.9-261.3 0-0.6-0.1-1.3-0.1-1.9 0-17.7 14.4-32.1 32.2-32.1 17.8-0.1 32.2 14.2 32.3 32 0 135.5-84.7 256.7-204.1 305.5zM382.7 662.7c70.8 0 128.3-57.4 128.3-128.2 0-70.9-57.4-128.4-128.3-128.4s-128.3 57.5-128.3 128.3c0 70.9 57.5 128.3 128.3 128.3zM896.3 96.4a32.2 32.1 0 1 1 64.4 0 32.2 32.1 0 1 1-64.4 0ZM931 220.4c0 6.5-2 12.8-5.6 17.9-35.6 65-95.7 114.5-168.8 144.5 44.7 35 73.4 89.5 73.4 150.7 0 82.5-52.3 152.9-125.5 179.7-0.4 0.1-0.8 0.3-1.2 0.4-2.8 0.8-5.8 1.3-8.9 1.3-17.2 0-31.2-13.9-31.2-31 0-13.9 9.2-25.7 21.8-29.6 48-18.6 82-65.2 82-119.7 0-52.8-31.8-98.1-77.3-117.8-15.6-6.7-26.5-22.2-26.5-40.2 0-20.8 14.6-38.3 34.1-42.7 76.5-18.5 140-64.4 173.5-129.3 5.5-9.7 16-16.3 28-16.3 17.8 0 32.2 14.4 32.2 32.1z"  horiz-adv-x="1024" />

    
    <glyph glyph-name="fenxiao" unicode="&#58904;" d="M381.952 356.864h-31.744v16.384h31.744c14.848 0 26.112 8.704 26.112 19.968s-11.776 19.968-26.112 19.968h-17.408l38.4 66.048c4.096 6.656 5.12 14.848 3.584 21.504-1.024 5.12-4.608 9.728-9.216 12.288-10.24 5.632-25.088 0-31.744-12.288L338.432 450.56c-9.728-17.92-10.24-19.456-10.24-19.456l-0.512-1.024c-12.8 25.088-36.352 68.608-37.376 71.168-6.656 12.288-22.016 17.92-32.256 11.776-4.608-3.072-8.192-7.68-9.728-12.8-2.048-6.656-0.512-14.336 3.072-20.992l35.84-61.952 2.048-3.584h-18.944c-14.848 0-26.112-8.704-26.112-19.968s11.776-19.968 26.112-19.968h33.792v-16.384h-33.792c-14.848 0-26.112-8.704-26.112-20.48 0-10.752 10.24-18.944 24.576-19.968h35.84v-21.504c0-14.336 10.24-26.112 23.04-26.112s23.04 11.264 23.04 25.6V317.44h36.864c12.8 2.048 20.992 9.728 20.992 19.456-0.512 11.264-11.776 19.968-26.624 19.968zM817.152 541.696c82.944 0 150.528 67.584 150.528 150.528s-67.584 150.528-150.528 150.528-150.528-67.584-150.528-150.528c0-13.312 1.536-25.6 4.608-37.888l-138.752-92.16c-5.632 6.656-11.264 13.312-17.92 19.456-50.688 50.688-117.76 78.336-189.44 78.336s-138.752-27.648-189.44-78.336c-50.688-50.688-78.336-117.76-78.336-189.44s27.648-138.752 78.336-189.44c50.688-50.688 117.76-78.336 189.44-78.336 71.168 0 138.24 27.648 188.928 77.824l146.944-102.4c-6.144-14.336-9.216-30.72-9.216-47.104 0-23.04 6.144-44.544 17.408-62.976h-139.776c-16.384 0-30.208-13.312-30.208-30.208 0-16.384 13.312-30.208 30.208-30.208h247.296c67.584 1.024 121.856 55.808 121.856 123.392 0 68.096-55.296 123.392-123.392 123.392-29.696 0-56.832-10.24-77.824-27.648l-145.408 101.376c26.624 42.496 40.96 91.648 40.96 142.848 0 41.984-9.728 82.944-27.648 119.296l133.12 88.576c28.16-35.84 70.656-58.88 118.784-58.88z m0 248.832c54.272 0 98.304-44.032 98.304-98.304S871.424 593.92 817.152 593.92s-98.304 44.032-98.304 98.304 44.032 98.304 98.304 98.304z m-41.472-674.816c34.816 0 62.976-28.16 62.976-62.976s-28.16-62.976-62.976-62.976-62.976 28.16-62.976 62.976 28.16 62.976 62.976 62.976zM326.144 184.32c-114.688 0-207.872 93.184-207.872 207.872 0 114.688 93.184 207.872 207.872 207.872s207.872-93.184 207.872-207.872C533.504 277.504 440.32 184.32 326.144 184.32z"  horiz-adv-x="1024" />

    
    <glyph glyph-name="kuaidi1" unicode="&#59160;" d="M174.38100594 254.26352241999996c0-10.17540949 8.47950848-18.65491797 20.35082012-18.65491797h503.68279439c10.17540949 0 20.35082013 8.47950848 20.35082012 18.65491797V542.5668061900001c0 10.17540949-8.47950848 20.35082013-20.35082012 20.35082012H193.03592392c-10.17540949 0-20.35082013-8.47950848-20.35082013-20.35082012v-22.04672228h-89.88278784v-37.30983594h89.88278784v-69.53196886H9.87854393v-37.30983708h164.50246201v-69.53196772H-71.52473543V271.22253937999994h244.20983922v-16.95901696zM240.52117049 222.04139065000004h-69.53196771v-67.8360667h11.87131164v1.69590215c6.78360633 30.52622962 28.83032861 55.96475506 57.66065607 66.14016455zM271.04740125 222.04139065000004c-40.70164025 0-74.61967303-28.83032861-81.4032805-67.8360667 0-5.08770531-1.69590215-8.47950848-1.69590101-13.56721266 0-45.78934443 37.30983709-81.4032805 81.40327936-81.4032805 45.78934443 0 81.4032805 37.30983709 81.4032805 81.4032805 0 5.08770531 0 10.17540949-1.69590216 13.56721266-5.08770531 37.30983709-37.30983709 67.8360667-78.01147619 67.8360667zM827.30314752 138.94220914000005m-81.4032805 0a81.4032805 81.4032805 0 1 1 162.80655986 0 81.4032805 81.4032805 0 1 1-162.80655986 0ZM996.89331371 196.60286635v61.05245923h1.69590215c1.69590215 0 5.08770531 1.69590215 5.08770418 5.08770532 3.39180317 1.69590215 6.78360633 6.78360633 6.78360746 13.56721379s-3.39180317 11.87131165-6.78360746 13.56721266c0 1.69590215-1.69590215 5.08770531-5.08770418 5.08770532h-1.69590215v15.2631148c-11.87131165 5.08770531-23.74262329 10.17540949-35.61393493 16.95901696-8.47950848 3.39180317-16.95901696 8.47950848-25.4385243 11.87131165-1.69590215 0-1.69590215 1.69590215-3.39180431 1.69590101-16.95901696 8.47950848-16.95901696 32.22213177-23.74262329 47.48524658-6.78360633 27.13442645-18.65491797 54.26885291-23.74262328 81.4032805-5.08770531 16.95901696-6.78360633 35.61393493-5.08770418 54.2688529L734.02855538 559.52582201v-337.48443136H299.87772872c28.83032861-10.17540949 50.87704974-35.61393493 55.96475505-67.8360667v-1.69590102h378.18607161c11.87131165 37.30983709 42.39754126 74.61967303 84.79508366 78.0114762 47.48524658 6.78360633 91.57868999-28.83032861 101.75409949-74.61967303h93.27459214v39.00573809c-5.08770531 0-10.17540949 1.69590215-16.95901696 1.69590216z"  horiz-adv-x="1024" />

    
    <glyph glyph-name="qingchushujuku" unicode="&#58929;" d="M923.00956367 526.4855417L766.92970039 605.8053840800001l87.41440899 173.27217129A32.48204589 32.48204589 0 0 1 854.62084707 824.18574258 32.68959873 32.68959873 0 0 1 809.30510615 824.91217793l-96.78888721-191.53683545-134.56353427 68.07738692c-14.42493457 7.26435527-27.98506406 10.9311249-40.2652837 10.9311249-22.24276435 0-36.73688291-11.62296826-42.99806513-22.62327803l-1.1415419-2.21389893C394.61419268 469.47764854 109.05584258 349.33904795 106.08091631 348.09373008c-12.45318047-5.50015488-21.23959131-15.25514589-24.76799209-27.43158955-5.7768917-19.95968145 5.1542332-37.80923994 7.40272412-41.19927275l3.49380879-5.25800919 521.4769374-322.95248349c18.33384903-11.27704658 33.96950947-16.77720146 47.7371918-16.77720146 13.14502383 0 21.2741833 5.05045635 25.04473067 8.19834345l1.45287069 1.27990986c188.56190918 179.60253838 249.27116484 443.64455859 255.22101827 504.5267751 5.05045635 52.23417451-10.30846641 71.19068203-20.13264229 78.00533965z m-37.32494942-72.29763193c-0.03459199-0.41510566-5.91526055-44.41634385-26.18627167-110.59116152-94.19447461 46.28432109-309.32316914 170.36642901-379.89119268 211.32355605a548.1820916 548.1820916 0 0 1 61.91998154 98.76064043c2.35226777-0.58806651 5.84607656-1.79879238 10.58520323-4.15106015 29.78385732-15.01300107 254.04488437-128.61368174 322.19145615-163.13666573l11.2078626-5.67311572c0.79562021-4.32402099 1.52205557-12.55695732 0.17296084-26.53219336z m-262.69292636-294.13720724a32.51663789 32.51663789 0 0 1 0.72643536 45.59247862 32.68959873 32.68959873 0 0 1-45.31574093 0.72643536l-100.14432714-97.54991456a28.36557773 28.36557773 0 0 1-3.11329512-3.56299365l-152.44768564 94.40202744L425.19366934 269.91542959000003a32.41286191 32.41286191 0 0 1 8.44048915 44.79685752 32.03234825 32.03234825 0 0 1-44.5201207 8.47508115l-115.22651308-78.97391982a31.30591201 31.30591201 0 0 1-8.61345-8.95937168l-112.9434293 69.91077217c56.93870917 26.56678536 185.48320693 94.26365859 288.91379004 204.95859696 72.78192247-42.34081377 301.81666904-174.72504199 399.47035957-221.87416727-30.64866153-82.05262295-87.17226416-198.35149307-184.20329619-294.10261524a86.68797363 86.68797363 0 0 0-12.62614131 6.60710391l-112.77046846 69.84158818 91.87679883 89.45534707z"  horiz-adv-x="1024" />

    
    <glyph glyph-name="xuanzhongjiaobiao" unicode="&#58897;" d="M433.191281 122.227665H989.244309c20.292532 0 36.744447 16.448112 36.744447 36.738743v530.955921L433.191281 122.227665z m522.639652 215.384515l-124.1128-124.103294a13.373716 13.373716 0 0 0-19.014861 0l-18.99775 19.014862-62.911983 61.010687c-7.937911 7.93601-7.937911 20.672791 0 28.591689s20.672791 7.918898 28.59359 0l53.316143-51.414846a13.373716 13.373716 0 0 1 19.014861 0l95.502098 95.513506c7.937911 7.953121 20.672791 7.916997 28.610702-0.017112a20.148034 20.148034 0 0 0 0-28.595492z"  horiz-adv-x="1503" />

    
    <glyph glyph-name="xuesheng1" unicode="&#58906;" d="M500 237.3c-3.9 0-7.7 1-11.2 3L76.5 480.4c-6.9 4-11.1 11.5-11 19.5 0.1 8 4.5 15.3 11.5 19.2l436.4 240.1c6.8 3.8 15.1 3.7 21.9-0.3l412.4-240c6.9-4 11.1-11.5 11-19.5-0.1-8-4.5-15.3-11.5-19.2L510.7 240.1c-3.3-1.9-7-2.8-10.7-2.8zM132.8 499l367.6-214 390.9 215.1-367.6 214L132.8 499zM869.038 471.264l44.5 0.424 2.404-252.3-44.5-0.424zM515.3 6.1C350.8 6.1 217 139.9 217 304.4V408.5h44.5v-104.1c0-140 113.9-253.8 253.8-253.8s253.8 113.9 253.8 253.8V425.5h44.5v-121.1c0-164.5-133.8-298.3-298.3-298.3z"  horiz-adv-x="1024" />

    
    <glyph glyph-name="chenggong1" unicode="&#58910;" d="M506.3-54.6C264.4-54.6 67.6 142.2 67.6 384S264.4 822.6 506.3 822.6c144.5 0 279.7-71.2 361.6-190.4 8.1-11.7 5.1-27.8-6.6-35.9-11.7-8.1-27.8-5.1-35.9 6.6C753 708.2 633.7 771 506.3 771c-213.4 0-387-173.6-387-387s173.6-387 387-387 387 173.6 387 387c0 35.9-4.9 71.4-14.6 105.6-3.9 13.7 4.1 28 17.8 31.8 13.7 3.9 28-4.1 31.8-17.8 11-38.7 16.5-79 16.5-119.6 0.1-241.8-196.7-438.6-438.5-438.6zM462.7 154.9c-6.9 0-13.7 2.7-18.8 8.1L266.4 351c-9.8 10.4-9.3 26.7 1 36.5s26.7 9.3 36.5-1L464 216.9l449.1 410.3c10.5 9.6 26.8 8.9 36.5-1.6 9.6-10.5 8.9-26.8-1.6-36.5L480.1 161.7c-5-4.6-11.2-6.8-17.4-6.8z"  horiz-adv-x="1024" />

    
    <glyph glyph-name="shezhi" unicode="&#58983;" d="M634.368-68.22400000000005c-19.136 0-37.056 8-51.776 23.04-45.44 46.464-108.224 40.064-137.92 3.712-16.704-17.408-36.288-25.664-55.68-25.664l-19.2 1.536c-61.056 22.016-110.656 52.288-152 91.648-22.272 22.656-29.44 53.76-18.944 79.872a92.16 92.16 0 0 1-9.472 74.112c-15.04 26.944-34.496 42.176-59.904 47.36l-6.592 1.792a72.576 72.576 0 0 0-50.496 63.04A420.224 420.224 0 0 0 64 376.51199999999994c0 28.288 2.944 56.576 9.216 88.896l1.728 6.528c6.848 21.248 21.76 39.04 40.832 48.768l7.872 3.136c30.656 8.512 53.184 25.024 64.256 46.208 14.208 25.472 17.088 52.416 9.088 83.072a70.912 70.912 0 0 0 26.88 78.848c37.248 32.512 83.456 60.544 138.816 83.904 11.328 3.968 19.136 5.312 26.88 5.312 19.264 0 37.184-8 51.904-23.104 45.376-46.4 108.224-39.936 137.856-3.648 25.6 26.688 56.832 32.448 82.176 21.44 54.336-19.776 103.552-49.92 144.704-88.96 22.272-22.72 29.44-53.888 18.88-79.936-7.36-23.68-4.16-51.456 9.472-74.112 15.04-26.816 34.496-42.048 59.968-47.296l6.528-1.792c28.928-9.856 48.256-34.048 50.56-63.104 5.248-24.064 8.384-55.104 8.384-84.16 0-28.48-2.944-56.704-9.216-88.96l-1.728-6.592a83.84 83.84 0 0 0-40.768-48.64l-7.872-3.2c-30.656-8.512-53.184-25.088-64.32-46.208-14.208-25.408-17.088-52.416-9.088-83.008 9.28-28.032-1.792-61.824-26.816-78.784-37.312-32.576-83.52-60.672-138.816-83.968a75.968 75.968 0 0 0-27.008-5.376zM512 41.47199999999998c38.464 0 76.928-17.728 108.288-49.792 10.496-10.816 14.976-7.872 20.48-6.016 50.24 21.12 91.84 46.336 127.36 77.184 8.128 5.76 10.752 14.848 8.384 22.208-11.904 45.376-7.296 86.272 13.248 123.072 17.6 33.472 52.032 59.584 94.208 71.104l2.752 1.216a32.512 32.512 0 0 1 12.224 16.96c5.696 29.184 8.32 54.208 8.32 79.168 0 25.536-2.752 52.736-7.744 76.608-1.344 14.336-10.24 18.944-15.424 20.672-40.896 8.384-72.832 32.832-95.104 72.576a145.664 145.664 0 0 0-13.44 118.4c3.392 8.64 0.64 17.536-6.336 24.64a366.464 366.464 0 0 1-127.296 77.568l-6.016 1.344a23.04 23.04 0 0 1-15.616-7.104c-48.896-59.968-150.016-68.032-216.512 0-14.912 15.232-16.32 7.488-20.608 6.016-50.176-21.12-91.776-46.336-127.296-77.12a19.84 19.84 0 0 1-8.32-22.208c11.904-45.376 7.232-86.208-13.312-123.008-17.536-33.472-52.032-59.584-94.208-71.104l-2.816-1.216a32.384 32.384 0 0 1-12.16-16.96 402.56 402.56 0 0 1-8.384-79.232c0-25.472 2.752-52.672 7.808-76.672 1.152-11.456 6.464-17.6 15.424-20.672 40.96-8.384 72.896-32.832 95.104-72.576 21.056-34.816 26.112-78.272 13.44-118.336-3.392-8.576-0.64-17.472 6.336-24.576a364.352 364.352 0 0 1 128.384-77.952l5.888-0.064a22.144 22.144 0 0 1 14.72 6.08c25.792 31.68 65.216 49.792 108.224 49.792zM510.656 223.03999999999996c-17.856 0-35.328 3.008-52.032 8.896l17.664 49.664a103.04 103.04 0 0 1 137.28 97.088 102.976 102.976 0 1 1-201.344-30.272l-50.368-15.424a155.84 155.84 0 0 0 148.8 201.28c85.824 0 155.584-69.824 155.584-155.648s-69.76-155.584-155.584-155.584z"  horiz-adv-x="1024" />

    
    <glyph glyph-name="sucai" unicode="&#58912;" d="M975.238095 798.47619h-48.761905V847.238095a48.761905 48.761905 0 0 1-97.523809 0v-48.761905h-48.761905a48.761905 48.761905 0 0 1 0-97.523809h48.761905v-48.761905a48.761905 48.761905 0 0 1 97.523809 0V700.952381h48.761905a48.761905 48.761905 0 0 1 0 97.523809zM316.952381 481.52381m-85.333333 0a85.333333 85.333333 0 1 1 170.666666 0 85.333333 85.333333 0 1 1-170.666666 0ZM877.714286 481.52381a48.761905 48.761905 0 0 1-48.761905-48.761905v-292.571429l-32.182857 33.158095L666.087619 310.857143l-7.314286 6.339047a102.4 102.4 0 0 1-138.483809-19.99238L430.08 188.952381l-48.761905 38.034286a83.870476 83.870476 0 0 1-115.078095 9.752381L97.52381 88.990476V652.190476a48.761905 48.761905 0 0 0 48.761904 48.761905h426.179048a48.761905 48.761905 0 0 1 0 97.523809H146.285714a146.285714 146.285714 0 0 1-146.285714-146.285714v-633.904762a146.285714 146.285714 0 0 1 146.285714-146.285714h633.904762a146.285714 146.285714 0 0 1 146.285714 146.285714V432.761905a48.761905 48.761905 0 0 1-48.761904 48.761905z"  horiz-adv-x="1024" />

    
    <glyph glyph-name="shebei" unicode="&#58927;" d="M890 184.8H134c-34.7 0-63 28.3-63 63v462c0 34.7 28.3 63 63 63h756c34.7 0 63-28.3 63-63v-462c0-34.8-28.3-63-63-63z m-756 546c-11.6 0-21-9.4-21-21v-462c0-11.6 9.4-21 21-21h756c11.6 0 21 9.4 21 21v462c0 11.6-9.4 21-21 21H134zM511.4 37.8c-11.6 0-21 9.4-21 21v126c0 11.6 9.4 21 21 21s21-9.4 21-21v-126c0-11.6-9.4-21-21-21zM227.9-4.8c-9.4 0-17.9 6.3-20.3 15.8-2.9 11.2 4 22.7 15.2 25.5 188 47.5 390.3 47.8 578.4 0.7 11.3-2.8 18.1-14.2 15.3-25.5-2.8-11.3-14.2-18.1-25.5-15.3-181.4 45.4-376.6 45.2-557.9-0.7-1.8-0.3-3.5-0.5-5.2-0.5zM932 303.8H92c-11.6 0-21 9.4-21 21s9.4 21 21 21h840c11.6 0 21-9.4 21-21s-9.4-21-21-21z"  horiz-adv-x="1024" />

    
    <glyph glyph-name="qianbao" unicode="&#59207;" d="M784 768H240c-88 0-160-72-160-160v-448c0-88 72-160 160-160h544c88 0 160 72 160 160V608c0 88-72 160-160 160z m96-480H592c-52.8 0-96 43.2-96 96s43.2 96 96 96h288v-192zM592 544c-88 0-160-72-160-160s72-160 160-160h288v-64c0-52.8-43.2-96-96-96H240c-52.8 0-96 43.2-96 96V608c0 52.8 43.2 96 96 96h544c52.8 0 96-43.2 96-96v-64H592zM560 384a32 32 0 1 1 64 0 32 32 0 1 1-64 0z"  horiz-adv-x="1024" />

    
    <glyph glyph-name="dianpu" unicode="&#58964;" d="M928.581818 384c-13.963636 0-23.272727-9.309091-23.272727-23.272727v-244.363637c0-65.163636-51.2-116.363636-116.363636-116.363636h-111.709091v232.727273c0 13.963636-9.309091 23.272727-23.272728 23.272727H367.709091c-13.963636 0-23.272727-9.309091-23.272727-23.272727v-232.727273H232.727273c-65.163636 0-116.363636 51.2-116.363637 116.363636V360.72727299999997c0 13.963636-9.309091 23.272727-23.272727 23.272727s-23.272727-9.309091-23.272727-23.272727v-244.363637c0-90.763636 72.145455-162.909091 162.909091-162.909091H788.945455c90.763636 0 162.909091 72.145455 162.90909 162.909091V360.72727299999997c0 11.636364-9.309091 23.272727-23.272727 23.272727zM390.981818 0v209.454545h239.709091v-209.454545H390.981818zM930.909091 814.545455H93.090909c-13.963636 0-23.272727-9.309091-23.272727-23.272728v-211.781818c0-90.763636 72.145455-162.909091 162.909091-162.909091 58.181818 0 111.709091 32.581818 139.636363 79.127273 27.927273-46.545455 81.454545-79.127273 139.636364-79.127273 60.509091 0 111.709091 32.581818 139.636364 79.127273 27.927273-46.545455 81.454545-79.127273 139.636363-79.127273 90.763636 0 162.909091 72.145455 162.909091 162.909091V791.272727c0 13.963636-9.309091 23.272727-23.272727 23.272728z m-581.818182-232.727273c0-65.163636-51.2-116.363636-116.363636-116.363637s-116.363636 51.2-116.363637 116.363637v186.181818h232.727273v-186.181818z m162.909091-118.690909c-65.163636 0-116.363636 51.2-116.363636 116.363636V768h232.727272v-188.509091c0-62.836364-51.2-116.363636-116.363636-116.363636z m395.636364 118.690909c0-65.163636-51.2-116.363636-116.363637-116.363637s-116.363636 51.2-116.363636 116.363637v186.181818h232.727273v-186.181818z"  horiz-adv-x="1055" />

    
    <glyph glyph-name="shijian" unicode="&#58890;" d="M768 16c-86.4-60.8-192-89.6-307.2-76.8C246.4-38.4 80 140.8 64 352 48 633.6 288 864 569.6 828.8c195.2-25.6 352-176 384-368 19.2-115.2-6.4-224-60.8-310.4-9.6-12.8-6.4-28.8 3.2-41.6 16-16 38.4-12.8 51.2 6.4 64 105.6 96 233.6 70.4 368C976 684.8 812.8 848 611.2 886.4 262.4 950.4-38.4 662.4 6.4 316.8c28.8-230.4 217.6-416 451.2-441.6 131.2-12.8 252.8 19.2 348.8 89.6 16 12.8 19.2 35.2 6.4 48-16 9.6-32 12.8-44.8 3.2zM441.6 419.2c12.8 12.8 32 12.8 44.8 0l230.4-230.4c12.8-12.8 12.8-32 0-44.8-12.8-12.8-32-12.8-44.8 0l-230.4 230.4c-12.8 12.8-12.8 32 0 44.8zM512 227.2c-19.2 0-32 16-32 32V678.4c0 16 12.8 32 32 32s32-12.8 32-32v-419.2c0-16-16-32-32-32z"  horiz-adv-x="1026" />

    
    <glyph glyph-name="jiantou" unicode="&#58893;" d="M989.866667 413.866667L597.333333 785.066667c-17.066667 17.066667-42.666667 17.066667-59.733333 0-17.066667-17.066667-17.066667-42.666667 0-59.733334l315.733333-298.666666H64c-25.6 0-42.666667-17.066667-42.666667-42.666667s17.066667-42.666667 42.666667-42.666667H853.333333l-315.733333-298.666666c-17.066667-17.066667-17.066667-42.666667 0-59.733334 8.533333-8.533333 21.333333-12.8 29.866667-12.8 8.533333 0 21.333333 4.266667 29.866666 12.8l392.533334 371.2c8.533333 8.533333 12.8 21.333333 12.8 29.866667s-4.266667 21.333333-12.8 29.866667z"  horiz-adv-x="1024" />

    
    <glyph glyph-name="shouji" unicode="&#58938;" d="M657.4 889.4H369.6c-69.7 0-130-32.1-130-106.4v-784.5c0-69.7 55.8-123.7 130-123.7h287.9c74.3 0 129.9 60.4 129.9 134.6V789.3c0 69.6-55.7 100.1-130 100.1z m-135-16.5c4.8 0 8.8-4 8.8-8.8 0-4.8-4-8.8-8.8-8.8-4.9 0-8.8 4-8.8 8.8 0 4.9 4 8.8 8.8 8.8z m-44.8-47.2c0 5.1 4.2 9.3 9.3 9.3h75.7c5.1 0 9.3-4.2 9.3-9.3v-0.7c0-5.1-4.2-9.3-9.3-9.3h-75.7c-5.1 0-9.3 4.2-9.3 9.3v0.7zM449 833.9c4.9 0 8.8-4 8.8-8.8 0-4.9-3.9-8.8-8.8-8.8s-8.8 4-8.8 8.8c0 4.9 4 8.8 8.8 8.8z m64.6-926.1c-24.1 0-43.6 19.6-43.6 43.6 0 24.1 19.6 43.6 43.6 43.6 24.1 0 43.6-19.6 43.6-43.6 0.1-23.9-19.5-43.6-43.6-43.6z m229 129c0-7-5.8-12.8-12.9-12.8H297.5c-7.1 0-12.9 5.8-12.9 12.9v734c0 7.1 5.8 12.9 12.9 12.9h432.2c7.1 0 12.9-5.8 12.9-12.9v-734.1z"  horiz-adv-x="1024" />

    
    <glyph glyph-name="banji" unicode="&#58998;" d="M311.466667 11.946667000000048v-0.192H213.333333c-37.704533 0-68.266667 30.5664-68.266666 68.266666V704c0 37.704533 30.562133 68.266667 68.266666 68.266667h559.944534c37.704533 0 68.266667-30.562133 68.266666-68.266667v-161.373867a25.6 25.6 0 0 0-51.1872-0.832h-0.1024V699.648a21.333333 21.333333 0 0 1-21.333333 21.333333H217.693867a21.333333 21.333333 0 0 1-21.333334-21.333333v-615.2704a21.333333 21.333333 0 0 1 21.333334-21.333333h91.4432A25.6 25.6 0 1 0 311.466667 11.946667000000048zM840.533333 38.27200000000005c0-16.6272-6.920533-25.472-23.04-25.472-16.119467 0-25.4592 10.171733-25.4592 25.472 0 102.877867-66.282667 160.6784-169.1008 160.6784-102.818133 0-169.1008-57.800533-169.1008-160.682667 0-13.841067-11.6992-25.467733-25.4592-25.467733-13.76 0-23.04 9.024-23.04 25.472 0 121.582933 96.085333 209.194667 217.6 209.194667s217.6-87.611733 217.6-209.194667zM627.165867 204.79999999999995a136.494933 136.494933 0 0 0-96.516267 233.019733 136.494933 136.494933 0 1 0 193.0368-193.041066 135.6032 135.6032 0 0 0-96.520533-39.978667z m0.034133 230.4c-51.754667 0-93.866667-42.112-93.866667-93.866667s42.112-93.866667 93.866667-93.866666 93.866667 42.112 93.866667 93.866666-42.112 93.866667-93.866667 93.866667z"  horiz-adv-x="1024" />

    
    <glyph glyph-name="xiaoxitongzhitixinglingshenglingdang-xianxing" unicode="&#59283;" d="M509.7-64.1c-53.5 0-106.1 9-156.6 26.8l-0.2 0.1c-8 2.9-14.5 8.7-18.1 16.4-3.7 7.7-4.1 16.4-1.2 24.4 4.7 12.7 17 21.3 30.6 21.3 3.7 0 7.4-0.6 11-1.9 43.3-15.2 88.6-22.9 134.5-22.9 47.2 0 93.7 8.1 138.1 24.2l0.8 0.3c3.7 1.4 7.5 2 11.3 2 13.4 0 25.7-8.4 30.5-21l0.1-0.2c2.9-8 2.5-16.7-1.1-24.4-3.6-7.8-10-13.6-18-16.6-52.1-18.9-106.4-28.5-161.7-28.5zM219.3 72c-60 0-108.7 48.2-108.7 107.4v4c0 21.6 6.4 42.4 18.5 60.2 12.2 17.8 29.2 31.3 49.3 39.1l7.1 2.8v165c0 79.8 29.8 156.4 84 215.8 53.8 59 127 96.2 206.3 105l10 1.1V805.8c0 14.5 11.8 26.4 26.4 26.4 14.5 0 26.4-11.8 26.4-26.4v-33.4l10-1.1c79.2-8.7 152.4-46 206.1-105 54.1-59.4 83.9-136 83.9-215.8v-165.1l7.1-2.8c20.1-7.8 37.1-21.3 49.3-39.1 12.2-17.8 18.6-38.6 18.6-60.1v-4c0-28.4-11.1-55.2-31.3-75.4-20.6-20.6-48-32-77.2-32H219.3z m-16.6 152.8c-16.9-6.8-28-23.5-27.7-41.6v-3.8c-0.2-24.5 19.5-44.7 44.1-45h585.7c11.5 0.1 22.3 4.5 30.5 12.5 8.6 8.4 13.6 20.2 13.5 32.3l0.1 3.9c0.3 18.1-10.8 34.9-27.6 41.6L774 243.4V450.5c0 143.6-117.5 260.4-262 260.4S250 594.1 250 450.5v-207.1l-47.3-18.6z"  horiz-adv-x="1024" />

    
    <glyph glyph-name="VIP1" unicode="&#58963;" d="M747.2 0H276.8c-46.4 0-84.8 32-94.4 76.8L64 665.6c-3.2 12.8 3.2 27.2 16 33.6 11.2 6.4 27.2 4.8 36.8-3.2l198.4-169.6 171.2 228.8c12.8 16 38.4 16 51.2 0l171.2-228.8L907.2 696c9.6 9.6 25.6 9.6 36.8 3.2 11.2-6.4 17.6-20.8 16-33.6L841.6 76.8c-9.6-44.8-48-76.8-94.4-76.8zM145.6 587.2l99.2-497.6c3.2-14.4 16-25.6 32-25.6h470.4c16 0 28.8 11.2 32 25.6l99.2 497.6L724.8 456c-6.4-6.4-16-8-24-8-8 1.6-17.6 4.8-22.4 12.8L512 683.2 345.6 460.8c-4.8-6.4-12.8-11.2-22.4-12.8-8-1.6-17.6 1.6-24 8L145.6 587.2zM512 160c-11.2 0-22.4 6.4-27.2 16l-96 160c-9.6 14.4-4.8 35.2 11.2 43.2 14.4 9.6 35.2 4.8 43.2-11.2L512 254.4 580.8 368c9.6 14.4 28.8 20.8 43.2 11.2 14.4-9.6 20.8-28.8 11.2-43.2l-96-160c-4.8-9.6-16-16-27.2-16z"  horiz-adv-x="1024" />

    
    <glyph glyph-name="wenzhangguanli1" unicode="&#58920;" d="M682.61 497.57H284.52v-56.87h398.09v56.87zM284.52 99.48h398.09v56.87H284.52v-56.87z m0 170.61h511.83v56.87H284.52v-56.87z m682.44 386.772v11.317h-11.318L739.48 884.342V895.659h-11.317L727.82 896l-0.34-0.341H170.78c-62.84 0-113.74-50.899-113.74-113.74v-796.18c0-62.84 50.9-113.739 113.74-113.739h682.44c62.84 0 113.74 50.899 113.74 113.74V652.597l2.104 2.104-2.105 2.16zM739.48 803.928l135.748-135.749H739.48V803.928zM910.09-14.26c0-31.392-25.478-56.87-56.87-56.87H170.78c-31.392 0-56.87 25.478-56.87 56.87V781.919c0 31.392 25.478 56.87 56.87 56.87h511.83V611.309H910.09v-625.57z"  horiz-adv-x="1024" />

    
    <glyph glyph-name="mima1" unicode="&#58911;" d="M800 448v-352c0-35.3-28.7-64-64-64H288c-35.3 0-64 28.7-64 64V448h576m0 64H224c-35.3 0-64-28.7-64-64v-352c0-70.7 57.3-128 128-128h448c70.7 0 128 57.3 128 128V448c0 35.3-28.7 64-64 64zM512 736c42.7 0 82.9-16.6 113.1-46.9C655.4 658.9 672 618.7 672 576v-64H352v64c0 42.7 16.6 82.9 46.9 113.1S469.3 736 512 736m0 64c-123.7 0-224-100.3-224-224v-128h448V576c0 123.7-100.3 224-224 224zM512 336c-17.7 0-32-14.3-32-32v-128c0-17.7 14.3-32 32-32s32 14.3 32 32V304c0 17.7-14.3 32-32 32z"  horiz-adv-x="1024" />

    
    <glyph glyph-name="dingbudaohang-zhangh" unicode="&#59157;" d="M951 404.2c12-12.5 12-31.9 0-44.4L764.8 166.1c-11.5-11.5-30.4-12-42.4 0-12 12.5-12 32.4 0 44.9l134.8 139.8H498.8c-17.5 0-31.4 14-31.4 31.4s14 31.4 31.4 31.4h355.4L722.4 552.5c-12 12.5-12 31.9 0 44.4 10.5 11.5 29 12.5 40.4 2 0.5-0.5 1.5-1 2-2L951 404.2zM620.6 108.7c17-0.5 30.9-14.5 30.4-31.4v-35.4c1-57.4-44.9-104.8-102.3-105.8H166.3C108.9-63 63-15.6 64 41.8V726.2C63 783.6 108.9 831 166.3 832h382.9c57.4-1 103.3-48.4 102.3-105.8v-35.4c0.5-17-13.5-31.4-30.4-31.4-17 0.5-30.9 14.5-30.4 31.4v35.4c0.5 23-18 41.9-41.4 42.4h-383c-23-0.5-41.4-19.5-41.4-42.4v-684.3c-0.5-23 18-41.9 41.4-42.4h382.9c23 0.5 41.4 19.5 41.4 42.4v35.4c0 8.5 3 16.5 9 22 5 5.9 13 9.4 21 9.4z"  horiz-adv-x="1024" />

    
    <glyph glyph-name="ziyuanxhdpi" unicode="&#58926;" d="M808.43536 525.761614H215.56464A127.218476 127.218476 0 0 1 88.889833 399.086806V-1.053358a126.946642 126.946642 0 0 1 126.674807-126.402973h592.87072A126.946642 126.946642 0 0 1 935.110167-1.053358V399.086806a127.218476 127.218476 0 0 1-126.674807 126.674808z m-244.650916-347.947969v-131.295992h-104.384391v131.567826a105.743563 105.743563 0 1 0 105.199894 0zM790.766127 522.227767h-81.550305v95.142023a197.079904 197.079904 0 0 1-394.159809 0v-95.142023h-81.550306v95.142023a278.63021 278.63021 0 0 0 557.26042 0z"  horiz-adv-x="1024" />

    
    <glyph glyph-name="icon_alipay_line" unicode="&#60304;" d="M322.749752 150.762935c74.987878 0 149.936871 47.355541 208.79642 123.163087-83.736123 40.35715-154.673755 69.230758-231.311203 61.753459-20.720927-2.034333-59.624982-11.099802-80.896449-29.652343-63.759139-54.903447-25.614377-155.264203 103.411232-155.264203zM160.016437 831.978894h703.966103c53.016471 0 95.995331-42.97886 95.995331-95.995331v-703.966103c0-53.016471-42.97886-95.995331-95.995331-95.995331H160.016437c-53.016471 0-95.995331 42.97886-95.995331 95.995331V735.983563c0 53.016471 42.97886 95.995331 95.995331 95.995331z m735.964888-600.388073V735.983563c0 17.672498-14.326287 31.998785-31.998785 31.998785H160.016437c-17.672498 0-31.998785-14.326287-31.998785-31.998785v-703.966103c0-17.672498 14.326287-31.998785 31.998785-31.998785h703.966103c17.672498 0 31.998785 14.326287 31.998785 31.998785V111.397369c-64.164369 26.708292-209.505571 87.783299-292.64613 127.259382-73.051783-88.768743-167.301354-142.641721-265.137613-142.641721-165.469636 0-221.660402 142.991692-143.308917 237.131768 17.076934 20.521383 46.147016 40.116673 91.247191 51.093679 70.545706 17.113773 182.841282-10.679223 288.069904-44.970214 18.914792 34.440393 34.853809 72.354911 46.715975 112.724341H296.610418v32.458249h167.223583v58.144258H261.292028v32.457226h202.541973v82.95534s0 13.977339 14.329356 13.97734h81.733513v-96.93268h200.257953v-32.457226H559.89687v-58.144258h163.467025c-15.637142-63.282279-39.414685-121.517611-69.210291-172.657338 49.595558-17.72264 94.132914-34.505885 127.311571-45.469588 56.590879-18.723434 92.449575-29.05064 114.51615-34.735106z"  horiz-adv-x="1024" />

    
    <glyph glyph-name="icon_addressbook" unicode="&#60303;" d="M863.98254 831.978894H224.014007c-53.017494 0-95.995331-42.97886-95.995332-95.995331v-159.991877h-31.998784c-17.671475 0-31.998785-14.325263-31.998785-31.998785s14.32731-31.998785 31.998785-31.998785h31.998784v-255.988232h-31.998784c-17.671475 0-31.998785-14.325263-31.998785-31.998785s14.32731-31.998785 31.998785-31.998785h31.998784v-159.991877c0-53.017494 42.97886-95.995331 95.995332-95.995331h639.969556c53.017494 0 95.995331 42.97886 95.995331 95.995331V735.983563c-0.001023 53.016471-42.97886 95.995331-95.996354 95.995331z m31.998785-799.961434c0-17.673521-14.32731-31.998785-31.998785-31.998785H224.014007c-17.671475 0-31.998785 14.325263-31.998785 31.998785V192.009338h63.996546c17.671475 0 31.998785 14.325263 31.998785 31.998784 0 17.672498-14.32731 31.998785-31.998785 31.998785h-63.996546V511.994116h63.996546c17.671475 0 31.998785 14.325263 31.998785 31.998785s-14.32731 31.998785-31.998785 31.998785h-63.996546V735.983563c0 17.672498 14.32731 31.998785 31.998785 31.998785h639.969556c17.671475 0 31.998785-14.325263 31.998785-31.998785v-703.966103zM702.803627 331.160561c-2.945075 1.183965-5.835915 1.769296-8.600888 1.769297-9.31618 0-17.663288-6.072299-27.530007-18.430768-1.461281-1.837858-2.738367-3.52529-5.234211-6.896061-14.299681-19.305695-21.717627-24.88169-36.490076-20.212344-19.639293 6.17156-37.428448 17.811668-63.325258 44.131103-24.885783 25.297153-32.943296 36.541241-39.920198 51.995211a132.419915 132.419915 0 0 1-1.827624 3.966335c-7.554046 15.692401-1.355881 25.541723 20.494776 44.105521a619.619066 619.619066 0 0 1 3.472078 2.970658 170.380482 170.380482 0 0 1 1.655709 1.441838c15.421224 13.542434 21.182438 29.688159 16.139586 39.58967-12.866029 25.258267-52.41886 83.198887-65.965388 95.577823-8.679683 7.942903-21.99085 6.418176-40.267099-7.153934-5.464455-4.062526-12.710486-11.083429-19.72218-20.907169-11.042497-15.47546-18.10024-33.564443-19.374256-54.298674-4.046153-65.875337 32.448016-148.60248 93.112677-209.950709 57.149605-57.768705 121.326253-86.84902 191.100386-86.84902 5.077645 0 10.187013 0.161682 15.335267 0.480954 21.49864 1.349741 40.185234 9.556657 56.06797 22.405289 5.655813 4.578272 10.561543 9.441023 14.682397 14.277168 2.508123 2.940982 4.29277 5.354961 5.328356 6.945179 2.476401 3.460822 5.273097 8.553817 6.870477 13.929244 2.124384 7.16212 1.421372 12.386098-2.484587 16.114003-14.795984 14.083763-79.847559 59.470463-93.517907 64.999386z"  horiz-adv-x="1024" />

    
    <glyph glyph-name="icon_file" unicode="&#60309;" d="M224.014007 192.009338h383.981324c17.672498 0 31.998785-14.326287 31.998785-31.998785s-14.326287-31.998785-31.998785-31.998785H224.014007c-17.672498 0-31.998785 14.326287-31.998785 31.998785s14.326287 31.998785 31.998785 31.998785z m0 159.991877h191.990662c17.672498 0 31.998785-14.326287 31.998785-31.998785s-14.326287-31.998785-31.998785-31.998784H224.014007c-17.672498 0-31.998785 14.326287-31.998785 31.998784s14.326287 31.998785 31.998785 31.998785z m-95.995332 383.982348c-17.672498 0-31.998785-14.326287-31.998784-31.998785v-639.969556c0-17.672498 14.326287-31.998785 31.998784-31.998785h767.96265c17.672498 0 31.998785 14.326287 31.998784 31.998785V607.989447c0 17.672498-14.326287 31.998785-31.998784 31.998785H575.996546a159.988808 159.988808 0 0 0-95.995331 31.998785l-76.79606 57.596789a32.002878 32.002878 0 0 1-19.199271 6.399757H128.018675z m0 63.996546h255.987209a95.992261 95.992261 0 0 0 57.596789-19.19927l76.796061-57.59679a95.992261 95.992261 0 0 1 57.596789-19.199271H895.980301c53.016471 0 95.995331-42.97886 95.995332-95.995331v-543.974225c0-53.016471-42.97886-95.995331-95.995332-95.995331H128.018675c-53.016471 0-95.995331 42.97886-95.995331 95.995331V703.984778c0 53.016471 42.977837 95.995331 95.995331 95.995331z"  horiz-adv-x="1024" />

    
    <glyph glyph-name="icon_GPS" unicode="&#60310;" d="M512-47.979502c223.989447 224.729298 335.984171 399.577534 335.984171 524.546757 0 187.452299-150.424988 339.412246-335.984171 339.412247S176.015829 664.019555 176.015829 476.567255c0-124.9682 111.994724-299.81746 335.984171-524.546757z m45.327348-45.177945c-25.009603-25.092491-65.645093-25.092491-90.654696 0-235.249909 236.027621-354.653369 422.443311-354.653369 569.724702C112.019283 699.219241 290.950512 879.976048 512 879.976048s399.980717-180.756807 399.980717-403.408793c0-147.281391-119.40346-333.697081-354.653369-569.724702z m-45.327348 445.158662c70.688969 0 127.994116 57.305147 127.994116 127.994116s-57.305147 127.994116-127.994116 127.994116-127.994116-57.305147-127.994116-127.994116 57.305147-127.994116 127.994116-127.994116z m0-63.996546c-106.033965 0-191.990662 85.956697-191.990662 191.990662s85.956697 191.990662 191.990662 191.990662 191.990662-85.956697 191.990662-191.990662-85.957721-191.990662-191.990662-191.990662z"  horiz-adv-x="1024" />

    
    <glyph glyph-name="icon_index_line" unicode="&#60311;" d="M895.981325 831.978894c17.672498 0 31.998785-14.326287 31.998784-31.998785v-703.966102c0-17.672498-14.326287-31.998785-31.998784-31.998785s-31.998785 14.326287-31.998785 31.998785V799.980109c0 17.672498 14.326287 31.998785 31.998785 31.998785zM639.994116 479.995331c17.672498 0 31.998785-14.326287 31.998785-31.998785v-351.983563c0-17.672498-14.326287-31.998785-31.998785-31.998785s-31.998785 14.326287-31.998785 31.998785V447.99757c0 17.671475 14.326287 31.997762 31.998785 31.997761z m-255.988232 95.995331c17.672498 0 31.998785-14.326287 31.998785-31.998784v-447.978895c0-17.672498-14.326287-31.998785-31.998785-31.998785s-31.998785 14.326287-31.998785 31.998785V543.992901c0 17.671475 14.326287 31.997762 31.998785 31.997761zM64.021106 0.018675H959.977871c17.672498 0 31.998785-14.326287 31.998785-31.998784s-14.326287-31.998785-31.998785-31.998785H64.021106c-17.672498 0-31.998785 14.326287-31.998785 31.998785s14.326287 31.998785 31.998785 31.998784z m63.997569 319.984779c17.672498 0 31.998785-14.326287 31.998785-31.998785v-191.990662c0-17.672498-14.326287-31.998785-31.998785-31.998785s-31.998785 14.326287-31.998784 31.998785V288.004669c0 17.672498 14.326287 31.998785 31.998784 31.998785z"  horiz-adv-x="1024" />

    
    <glyph glyph-name="icon_live" unicode="&#60312;" d="M628.577089 271.614373l-163.614382-102.258988c-14.986319-9.366322-34.727942-4.810562-44.094264 10.175757a31.998785 31.998785 0 0 0-4.863774 16.959254v204.517976c0 17.672498 14.326287 31.998785 31.998785 31.998785a31.998785 31.998785 0 0 0 16.959253-4.863774l163.614382-102.258989c14.986319-9.366322 19.542078-29.107945 10.175757-44.094264a32.019251 32.019251 0 0 0-10.175757-10.175757zM160.016437 634.733555c-17.672498 0-31.998785-14.326287-31.998785-31.998785v-575.971987c0-17.672498 14.326287-31.998785 31.998785-31.998785h703.966103c17.672498 0 31.998785 14.326287 31.998785 31.998785V602.73477c0 17.672498-14.326287 31.998785-31.998785 31.998785H160.016437z m605.226264 63.996546h98.740862c53.016471 0 95.995331-42.97886 95.995331-95.995331v-575.971987c0-53.016471-42.97886-95.995331-95.995331-95.995331H160.016437c-53.016471 0-95.995331 42.97886-95.995331 95.995331V602.73477c0 53.016471 42.97886 95.995331 95.995331 95.995331h98.740862l-83.878363 83.878362c-12.496615 12.495592-12.496615 32.756031 0 45.252647 12.496615 12.496615 32.756031 12.496615 45.252647 0l129.131009-129.131009h325.474816l129.131009 129.131009c12.495592 12.496615 32.756031 12.496615 45.252647 0 12.496615-12.495592 12.496615-32.756031 0-45.252647l-83.878363-83.878362z"  horiz-adv-x="1024" />

    
    <glyph glyph-name="icon_im_voice" unicode="&#60313;" d="M512 891.624343c-280.357246 0-507.624343-227.275283-507.624343-507.624343s227.267097-507.624343 507.624343-507.624343 507.624343 227.275283 507.624343 507.624343S792.356222 891.624343 512 891.624343z m0-983.5221c-262.832104 0-475.897757 213.069747-475.897757 475.897757S249.167896 859.897757 512 859.897757s475.897757-213.069747 475.897757-475.897757-213.065653-475.897757-475.897757-475.897757zM512 288.820244c69.944002 0 126.906342 56.915267 126.906342 127.107933V574.157921c0 70.191642-56.819077 127.107933-126.906342 127.107933-69.944002 0-126.906342-56.915267-126.906342-127.107933v-158.229744c0-70.191642 56.819077-127.107933 126.906342-127.107933zM718.221782 447.453171c-17.521049 0-31.726585-14.205537-31.726586-31.726586 0-96.371908-78.123288-174.49622-174.496219-174.496219S337.502757 319.353654 337.502757 415.726585c0 17.521049-14.205537 31.726585-31.726585 31.726586s-31.726585-14.205537-31.726586-31.726586c0-120.66315 89.804329-220.335221 206.222805-235.857752v-97.270371c0-17.521049 14.205537-31.726585 31.726586-31.726585s31.726585 14.205537 31.726585 31.726585v97.270371c116.418476 15.522532 206.222805 115.194602 206.222805 235.857752 0 17.521049-14.205537 31.726585-31.726585 31.726586z"  horiz-adv-x="1024" />

    
    <glyph glyph-name="icon_namecard" unicode="&#60314;" d="M681.374572 556.197874c-0.415462 31.083949 3.77907 54.29765 32.804127 69.959351 5.940292 3.206018 20.013823 4.89652 26.732851 4.896521 7.361665 0.753153 0.073678 6.757914 16.313547 6.757914 16.239869 0 38.82526-7.154957 49.621141-29.30135 10.79588-22.147416 11.709693-46.454008 11.709693-52.280714s5.963829-2.913353 5.963829-11.654434-2.572592-26.03598-11.72402-37.784558c-9.151427-11.747555-12.133342-14.661931-18.098193-23.403013-5.964852-8.741082-8.946766-18.271132-8.946766-26.223244 0-29.136597 49.848315-31.289634 78.744435-49.689703 11.837606-7.538697 20.006659-17.393135 24.505114-29.563316l0.001023 0.001023c3.64604-9.861602-1.39272-20.812001-11.255345-24.457018a19.023262 19.023262 0 0 0-6.601348-1.180895l-242.358817 0.002047c-10.512425 0-19.034519 8.522094-19.034518 19.034518a19.033495 19.033495 0 0 0 1.191128 6.627954c4.516874 12.158924 12.656251 22.004153 24.419156 29.537734 28.732391 18.400069 78.815043 20.553105 78.815043 49.689702 0 7.759731-2.981914 17.482163-8.946766 26.223245-5.963829 8.741082-8.946766 11.654434-17.893532 23.403013-8.946766 11.748578-11.92868 29.043477-11.92868 37.784558 0.002047 8.739035 5.966898 5.825682 5.966898 11.620665zM163.007561 225.367073h380.718001c17.522072 0 31.726585-14.204513 31.726585-31.726585s-14.204513-31.726585-31.726585-31.726586H163.007561c-17.522072 0-31.726585 14.204513-31.726586 31.726586 0.001023 17.522072 14.204513 31.726585 31.726586 31.726585z m0 126.906342h190.359512c17.522072 0 31.726585-14.204513 31.726585-31.726586s-14.204513-31.726585-31.726585-31.726585H163.007561c-17.522072 0-31.726585 14.204513-31.726586 31.726585s14.204513 31.726585 31.726586 31.726586z m-63.452148 348.992439c-17.522072 0-31.726585-14.204513-31.726585-31.726586v-571.077513c0-17.522072 14.204513-31.726585 31.726585-31.726585h824.889174c17.522072 0 31.726585 14.204513 31.726585 31.726585V669.539268c0 17.522072-14.204513 31.726585-31.726585 31.726586H99.555413z m0 63.452147h824.889174c52.566216 0 95.179756-42.61354 95.179756-95.179756v-571.077513c0-52.566216-42.61354-95.179756-95.179756-95.179757H99.555413c-52.566216 0-95.179756 42.61354-95.179756 95.179757V669.539268c0 52.565193 42.61354 95.178733 95.179756 95.178733z"  horiz-adv-x="1024" />

    
    </font>
</defs>
</svg>
